ISO-10303-21;
HEADER;
/*Generated by software containing ST-Developer
 * from STEP Tools, Inc. (www.steptools.com) 
 */
/*OPTION: using custom renumber hook */
/*description */
/*implementation_level */
FILE_DESCRIPTION(('STEP AP242 Edition 2','STEP AP242 Edition 2''CAx-IF Rec.Pracs.---Representation and Presentation of Product Manufa
cturing Information (PMI)---4.0---2014-10-13','STEP AP242 Edition 2''CAx-IF Rec.Pracs.---Representation and Presentation of Product Manufa
cturing Information (PMI)---4.0---2014-10-13''CAx-IF Rec.Pracs.---3D Tessellated Geometry---0.4---2014-09-14','STEP AP242 Edition 2''CAx-IF Rec.Pracs.---Representation and Presentation of Product Manufa
cturing Information (PMI)---4.0---2014-10-13''CAx-IF Rec.Pracs.---3D Tessellated Geometry---0.4---2014-09-14''2;1','STEP AP242 Edition 2''CAx-IF Rec.Pracs.---Representation and Presentation of Product Manufa
cturing Information (PMI)---4.0---2014-10-13''CAx-IF Rec.Pracs.---3D Tessellated Geometry---0.4---2014-09-14''2;1''CAx-IF Rec.Pracs.---User Defined Attributes---1.5---2016-08-15'),'2;1');
/*name */
/*time_stamp */
/*author */
/*organization */
/*preprocessor_version */
/*originating_system */
/*authorisation */
FILE_NAME('/vol/tmp/translate-17427016871178533895/Lid.step','2026-03-08T15:59:39',(''),(''),'ST-DEVELOPER v20','ONSHAPE BY PTC INC, 1.211','  ');
FILE_SCHEMA(('AP242_MANAGED_MODEL_BASED_3D_ENGINEERING_MIM_LF { 1 0 10303 442 3 1 4 }'));
ENDSEC;
DATA;
#10=SHAPE_REPRESENTATION_RELATIONSHIP('','',#742,#11);
#11=ADVANCED_BREP_SHAPE_REPRESENTATION('',(#740),#1444);
#12=B_SPLINE_SURFACE_WITH_KNOTS('',3,1,((#1163,#1164),(#1165,#1166),(#1167,
#1168),(#1169,#1170)),.SURF_OF_LINEAR_EXTRUSION.,.F.,.F.,.F.,(4,4),(2,2),(-1.18084806228428E-14,1.00000000000001),(0.,1.),.PIECEWISE_BEZIER_KNOTS.);
#13=B_SPLINE_SURFACE_WITH_KNOTS('',3,1,((#1175,#1176),(#1177,#1178),(#1179,
#1180),(#1181,#1182)),.SURF_OF_LINEAR_EXTRUSION.,.F.,.F.,.F.,(4,4),(2,2),(4.4326802768264E-16,1.),(0.,1.),.PIECEWISE_BEZIER_KNOTS.);
#14=B_SPLINE_SURFACE_WITH_KNOTS('',3,1,((#1187,#1188),(#1189,#1190),(#1191,
#1192),(#1193,#1194)),.SURF_OF_LINEAR_EXTRUSION.,.F.,.F.,.F.,(4,4),(2,2),(-1.41133387903777E-14,1.),(0.,1.),.PIECEWISE_BEZIER_KNOTS.);
#15=B_SPLINE_SURFACE_WITH_KNOTS('',3,1,((#1199,#1200),(#1201,#1202),(#1203,
#1204),(#1205,#1206)),.SURF_OF_LINEAR_EXTRUSION.,.F.,.F.,.F.,(4,4),(2,2),(-3.99932187210315E-16,0.999999999999998),(0.,1.),.PIECEWISE_BEZIER_KNOTS.);
#16=B_SPLINE_SURFACE_WITH_KNOTS('',3,1,((#1211,#1212),(#1213,#1214),(#1215,
#1216),(#1217,#1218)),.SURF_OF_LINEAR_EXTRUSION.,.F.,.F.,.F.,(4,4),(2,2),(-6.72243295505975E-16,1.),(0.,1.),.PIECEWISE_BEZIER_KNOTS.);
#17=B_SPLINE_SURFACE_WITH_KNOTS('',2,3,((#1227,#1228,#1229,#1230,#1231,
#1232,#1233,#1234,#1235,#1236,#1237,#1238,#1239,#1240),(#1241,#1242,#1243,
#1244,#1245,#1246,#1247,#1248,#1249,#1250,#1251,#1252,#1253,#1254),(#1255,
#1256,#1257,#1258,#1259,#1260,#1261,#1262,#1263,#1264,#1265,#1266,#1267,
#1268)),.UNSPECIFIED.,.F.,.F.,.F.,(3,3),(4,2,2,2,2,2,4),(0.,1.),(0.,0.00185073561524388,0.00277610342286581,0.00370147123048775,0.00462683903810969,0.00555220684573163,0.00740294246097551),.UNSPECIFIED.);
#18=B_SPLINE_SURFACE_WITH_KNOTS('',2,3,((#1273,#1274,#1275,#1276,#1277,
#1278,#1279,#1280,#1281,#1282,#1283,#1284,#1285,#1286),(#1287,#1288,#1289,
#1290,#1291,#1292,#1293,#1294,#1295,#1296,#1297,#1298,#1299,#1300),(#1301,
#1302,#1303,#1304,#1305,#1306,#1307,#1308,#1309,#1310,#1311,#1312,#1313,
#1314)),.UNSPECIFIED.,.F.,.F.,.F.,(3,3),(4,2,2,2,2,2,4),(0.,1.),(0.,0.00185073561524389,0.00277610342286583,0.00370147123048778,0.00462683903810972,0.00555220684573166,0.00740294246097555),.UNSPECIFIED.);
#19=B_SPLINE_SURFACE_WITH_KNOTS('',3,1,((#1319,#1320),(#1321,#1322),(#1323,
#1324),(#1325,#1326)),.SURF_OF_LINEAR_EXTRUSION.,.F.,.F.,.F.,(4,4),(2,2),(-7.82675673331735E-16,1.00000000000008),(0.,1.),.PIECEWISE_BEZIER_KNOTS.);
#20=B_SPLINE_SURFACE_WITH_KNOTS('',3,1,((#1331,#1332),(#1333,#1334),(#1335,
#1336),(#1337,#1338)),.SURF_OF_LINEAR_EXTRUSION.,.F.,.F.,.F.,(4,4),(2,2),(-8.68628761267581E-16,1.00000000000005),(0.,1.),.PIECEWISE_BEZIER_KNOTS.);
#21=B_SPLINE_SURFACE_WITH_KNOTS('',2,3,((#1343,#1344,#1345,#1346,#1347,
#1348,#1349,#1350,#1351,#1352,#1353,#1354,#1355,#1356),(#1357,#1358,#1359,
#1360,#1361,#1362,#1363,#1364,#1365,#1366,#1367,#1368,#1369,#1370),(#1371,
#1372,#1373,#1374,#1375,#1376,#1377,#1378,#1379,#1380,#1381,#1382,#1383,
#1384)),.UNSPECIFIED.,.F.,.F.,.F.,(3,3),(4,2,2,2,2,2,4),(0.,1.),(0.,0.00185073561524388,0.00277610342286582,0.00370147123048776,0.0046268390381097,0.00555220684573164,0.00740294246097552),.UNSPECIFIED.);
#22=B_SPLINE_SURFACE_WITH_KNOTS('',2,3,((#1389,#1390,#1391,#1392,#1393,
#1394,#1395,#1396,#1397,#1398,#1399,#1400,#1401,#1402),(#1403,#1404,#1405,
#1406,#1407,#1408,#1409,#1410,#1411,#1412,#1413,#1414,#1415,#1416),(#1417,
#1418,#1419,#1420,#1421,#1422,#1423,#1424,#1425,#1426,#1427,#1428,#1429,
#1430)),.UNSPECIFIED.,.F.,.F.,.F.,(3,3),(4,2,2,2,2,2,4),(0.,1.),(0.,0.00185073561524388,0.00277610342286583,0.00370147123048778,0.00462683903810972,0.00555220684573166,0.00740294246097555),.UNSPECIFIED.);
#23=B_SPLINE_SURFACE_WITH_KNOTS('',3,1,((#1435,#1436),(#1437,#1438),(#1439,
#1440),(#1441,#1442)),.SURF_OF_LINEAR_EXTRUSION.,.F.,.F.,.F.,(4,4),(2,2),(-5.77046784791199E-15,1.00000000000016),(0.,1.),.PIECEWISE_BEZIER_KNOTS.);
#24=B_SPLINE_CURVE_WITH_KNOTS('',3,(#923,#924,#925,#926),.UNSPECIFIED.,.F.,.F.,(4,4),(0.,0.9),.UNSPECIFIED.);
#25=B_SPLINE_CURVE_WITH_KNOTS('',3,(#929,#930,#931,#932),.UNSPECIFIED.,.F.,.F.,(4,4),(0.,1.),.UNSPECIFIED.);
#26=B_SPLINE_CURVE_WITH_KNOTS('',3,(#934,#935,#936,#937),.UNSPECIFIED.,.F.,.F.,(4,4),(0.1,1.),.UNSPECIFIED.);
#27=B_SPLINE_CURVE_WITH_KNOTS('',3,(#941,#942,#943,#944),.UNSPECIFIED.,.F.,.F.,(4,4),(0.,0.9),.UNSPECIFIED.);
#28=B_SPLINE_CURVE_WITH_KNOTS('',3,(#947,#948,#949,#950),.UNSPECIFIED.,.F.,.F.,(4,4),(0.,1.),.UNSPECIFIED.);
#29=B_SPLINE_CURVE_WITH_KNOTS('',3,(#952,#953,#954,#955),.UNSPECIFIED.,.F.,.F.,(4,4),(0.1,1.),.UNSPECIFIED.);
#30=B_SPLINE_CURVE_WITH_KNOTS('',3,(#959,#960,#961,#962),.UNSPECIFIED.,.F.,.F.,(4,4),(0.,0.9),.UNSPECIFIED.);
#31=B_SPLINE_CURVE_WITH_KNOTS('',3,(#965,#966,#967,#968),.UNSPECIFIED.,.F.,.F.,(4,4),(0.,1.),.UNSPECIFIED.);
#32=B_SPLINE_CURVE_WITH_KNOTS('',3,(#970,#971,#972,#973),.UNSPECIFIED.,.F.,.F.,(4,4),(0.1,1.),.UNSPECIFIED.);
#33=B_SPLINE_CURVE_WITH_KNOTS('',3,(#977,#978,#979,#980),.UNSPECIFIED.,.F.,.F.,(4,4),(0.,0.900000000038384),.UNSPECIFIED.);
#34=B_SPLINE_CURVE_WITH_KNOTS('',3,(#983,#984,#985,#986),.UNSPECIFIED.,.F.,.F.,(4,4),(0.,1.),.UNSPECIFIED.);
#35=B_SPLINE_CURVE_WITH_KNOTS('',3,(#988,#989,#990,#991),.UNSPECIFIED.,.F.,.F.,(4,4),(0.1,1.),.UNSPECIFIED.);
#36=B_SPLINE_CURVE_WITH_KNOTS('',3,(#1013,#1014,#1015,#1016),.UNSPECIFIED.,.F.,.F.,(4,4),(0.,1.),.UNSPECIFIED.);
#37=B_SPLINE_CURVE_WITH_KNOTS('',3,(#1017,#1018,#1019,#1020),.UNSPECIFIED.,.F.,.F.,(4,4),(0.,1.),.UNSPECIFIED.);
#38=B_SPLINE_CURVE_WITH_KNOTS('',3,(#1021,#1022,#1023,#1024),.UNSPECIFIED.,.F.,.F.,(4,4),(0.,1.),.UNSPECIFIED.);
#39=B_SPLINE_CURVE_WITH_KNOTS('',3,(#1025,#1026,#1027,#1028),.UNSPECIFIED.,.F.,.F.,(4,4),(0.,1.),.UNSPECIFIED.);
#40=B_SPLINE_CURVE_WITH_KNOTS('',3,(#1030,#1031,#1032,#1033),.UNSPECIFIED.,.F.,.F.,(4,4),(0.,1.),.UNSPECIFIED.);
#41=B_SPLINE_CURVE_WITH_KNOTS('',3,(#1036,#1037,#1038,#1039),.UNSPECIFIED.,.F.,.F.,(4,4),(0.,1.),.UNSPECIFIED.);
#42=B_SPLINE_CURVE_WITH_KNOTS('',3,(#1041,#1042,#1043,#1044),.UNSPECIFIED.,.F.,.F.,(4,4),(0.,1.),.UNSPECIFIED.);
#43=B_SPLINE_CURVE_WITH_KNOTS('',3,(#1046,#1047,#1048,#1049),.UNSPECIFIED.,.F.,.F.,(4,4),(0.,1.),.UNSPECIFIED.);
#44=B_SPLINE_CURVE_WITH_KNOTS('',3,(#1051,#1052,#1053,#1054),.UNSPECIFIED.,.F.,.F.,(4,4),(0.,1.),.UNSPECIFIED.);
#45=B_SPLINE_CURVE_WITH_KNOTS('',3,(#1056,#1057,#1058,#1059),.UNSPECIFIED.,.F.,.F.,(4,4),(0.,1.),.UNSPECIFIED.);
#46=B_SPLINE_CURVE_WITH_KNOTS('',3,(#1061,#1062,#1063,#1064),.UNSPECIFIED.,.F.,.F.,(4,4),(0.,1.),.UNSPECIFIED.);
#47=B_SPLINE_CURVE_WITH_KNOTS('',3,(#1066,#1067,#1068,#1069),.UNSPECIFIED.,.F.,.F.,(4,4),(0.,1.),.UNSPECIFIED.);
#48=B_SPLINE_CURVE_WITH_KNOTS('',3,(#1171,#1172,#1173,#1174),.UNSPECIFIED.,.F.,.F.,(4,4),(0.,1.),.UNSPECIFIED.);
#49=B_SPLINE_CURVE_WITH_KNOTS('',3,(#1183,#1184,#1185,#1186),.UNSPECIFIED.,.F.,.F.,(4,4),(0.,1.),.UNSPECIFIED.);
#50=B_SPLINE_CURVE_WITH_KNOTS('',3,(#1195,#1196,#1197,#1198),.UNSPECIFIED.,.F.,.F.,(4,4),(0.,1.),.UNSPECIFIED.);
#51=B_SPLINE_CURVE_WITH_KNOTS('',3,(#1207,#1208,#1209,#1210),.UNSPECIFIED.,.F.,.F.,(4,4),(0.,1.),.UNSPECIFIED.);
#52=B_SPLINE_CURVE_WITH_KNOTS('',3,(#1219,#1220,#1221,#1222),.UNSPECIFIED.,.F.,.F.,(4,4),(0.,1.),.UNSPECIFIED.);
#53=B_SPLINE_CURVE_WITH_KNOTS('',3,(#1223,#1224,#1225,#1226),.UNSPECIFIED.,.F.,.F.,(4,4),(0.,1.),.UNSPECIFIED.);
#54=B_SPLINE_CURVE_WITH_KNOTS('',3,(#1269,#1270,#1271,#1272),.UNSPECIFIED.,.F.,.F.,(4,4),(0.,1.),.UNSPECIFIED.);
#55=B_SPLINE_CURVE_WITH_KNOTS('',3,(#1315,#1316,#1317,#1318),.UNSPECIFIED.,.F.,.F.,(4,4),(0.,1.),.UNSPECIFIED.);
#56=B_SPLINE_CURVE_WITH_KNOTS('',3,(#1327,#1328,#1329,#1330),.UNSPECIFIED.,.F.,.F.,(4,4),(0.,1.),.UNSPECIFIED.);
#57=B_SPLINE_CURVE_WITH_KNOTS('',3,(#1339,#1340,#1341,#1342),.UNSPECIFIED.,.F.,.F.,(4,4),(0.,1.),.UNSPECIFIED.);
#58=B_SPLINE_CURVE_WITH_KNOTS('',3,(#1385,#1386,#1387,#1388),.UNSPECIFIED.,.F.,.F.,(4,4),(0.,1.),.UNSPECIFIED.);
#59=B_SPLINE_CURVE_WITH_KNOTS('',3,(#1431,#1432,#1433,#1434),.UNSPECIFIED.,.F.,.F.,(4,4),(0.,1.),.UNSPECIFIED.);
#60=ORIENTED_EDGE('',*,*,#266,.F.);
#61=ORIENTED_EDGE('',*,*,#267,.T.);
#62=ORIENTED_EDGE('',*,*,#268,.T.);
#63=ORIENTED_EDGE('',*,*,#269,.F.);
#64=ORIENTED_EDGE('',*,*,#270,.F.);
#65=ORIENTED_EDGE('',*,*,#271,.T.);
#66=ORIENTED_EDGE('',*,*,#272,.T.);
#67=ORIENTED_EDGE('',*,*,#273,.F.);
#68=ORIENTED_EDGE('',*,*,#274,.T.);
#69=ORIENTED_EDGE('',*,*,#275,.T.);
#70=ORIENTED_EDGE('',*,*,#276,.T.);
#71=ORIENTED_EDGE('',*,*,#277,.T.);
#72=ORIENTED_EDGE('',*,*,#278,.T.);
#73=ORIENTED_EDGE('',*,*,#279,.T.);
#74=ORIENTED_EDGE('',*,*,#280,.T.);
#75=ORIENTED_EDGE('',*,*,#281,.F.);
#76=ORIENTED_EDGE('',*,*,#282,.T.);
#77=ORIENTED_EDGE('',*,*,#283,.T.);
#78=ORIENTED_EDGE('',*,*,#284,.T.);
#79=ORIENTED_EDGE('',*,*,#285,.F.);
#80=ORIENTED_EDGE('',*,*,#286,.T.);
#81=ORIENTED_EDGE('',*,*,#287,.T.);
#82=ORIENTED_EDGE('',*,*,#288,.T.);
#83=ORIENTED_EDGE('',*,*,#289,.T.);
#84=ORIENTED_EDGE('',*,*,#290,.F.);
#85=ORIENTED_EDGE('',*,*,#291,.T.);
#86=ORIENTED_EDGE('',*,*,#292,.T.);
#87=ORIENTED_EDGE('',*,*,#293,.F.);
#88=ORIENTED_EDGE('',*,*,#272,.F.);
#89=ORIENTED_EDGE('',*,*,#294,.T.);
#90=ORIENTED_EDGE('',*,*,#295,.T.);
#91=ORIENTED_EDGE('',*,*,#296,.F.);
#92=ORIENTED_EDGE('',*,*,#268,.F.);
#93=ORIENTED_EDGE('',*,*,#297,.T.);
#94=ORIENTED_EDGE('',*,*,#298,.T.);
#95=ORIENTED_EDGE('',*,*,#299,.F.);
#96=ORIENTED_EDGE('',*,*,#285,.T.);
#97=ORIENTED_EDGE('',*,*,#300,.T.);
#98=ORIENTED_EDGE('',*,*,#289,.F.);
#99=ORIENTED_EDGE('',*,*,#301,.T.);
#100=ORIENTED_EDGE('',*,*,#277,.F.);
#101=ORIENTED_EDGE('',*,*,#302,.T.);
#102=ORIENTED_EDGE('',*,*,#281,.T.);
#103=ORIENTED_EDGE('',*,*,#303,.T.);
#104=ORIENTED_EDGE('',*,*,#304,.T.);
#105=ORIENTED_EDGE('',*,*,#305,.T.);
#106=ORIENTED_EDGE('',*,*,#306,.T.);
#107=ORIENTED_EDGE('',*,*,#307,.T.);
#108=ORIENTED_EDGE('',*,*,#308,.T.);
#109=ORIENTED_EDGE('',*,*,#309,.T.);
#110=ORIENTED_EDGE('',*,*,#310,.T.);
#111=ORIENTED_EDGE('',*,*,#311,.T.);
#112=ORIENTED_EDGE('',*,*,#312,.T.);
#113=ORIENTED_EDGE('',*,*,#313,.T.);
#114=ORIENTED_EDGE('',*,*,#314,.F.);
#115=ORIENTED_EDGE('',*,*,#315,.T.);
#116=ORIENTED_EDGE('',*,*,#316,.F.);
#117=ORIENTED_EDGE('',*,*,#317,.T.);
#118=ORIENTED_EDGE('',*,*,#292,.F.);
#119=ORIENTED_EDGE('',*,*,#318,.F.);
#120=ORIENTED_EDGE('',*,*,#319,.F.);
#121=ORIENTED_EDGE('',*,*,#320,.T.);
#122=ORIENTED_EDGE('',*,*,#312,.F.);
#123=ORIENTED_EDGE('',*,*,#321,.T.);
#124=ORIENTED_EDGE('',*,*,#293,.T.);
#125=ORIENTED_EDGE('',*,*,#317,.F.);
#126=ORIENTED_EDGE('',*,*,#322,.F.);
#127=ORIENTED_EDGE('',*,*,#290,.T.);
#128=ORIENTED_EDGE('',*,*,#321,.F.);
#129=ORIENTED_EDGE('',*,*,#315,.F.);
#130=ORIENTED_EDGE('',*,*,#323,.T.);
#131=ORIENTED_EDGE('',*,*,#314,.T.);
#132=ORIENTED_EDGE('',*,*,#324,.T.);
#133=ORIENTED_EDGE('',*,*,#325,.T.);
#134=ORIENTED_EDGE('',*,*,#326,.T.);
#135=ORIENTED_EDGE('',*,*,#318,.T.);
#136=ORIENTED_EDGE('',*,*,#291,.F.);
#137=ORIENTED_EDGE('',*,*,#323,.F.);
#138=ORIENTED_EDGE('',*,*,#327,.F.);
#139=ORIENTED_EDGE('',*,*,#328,.T.);
#140=ORIENTED_EDGE('',*,*,#329,.T.);
#141=ORIENTED_EDGE('',*,*,#330,.F.);
#142=ORIENTED_EDGE('',*,*,#331,.T.);
#143=ORIENTED_EDGE('',*,*,#295,.F.);
#144=ORIENTED_EDGE('',*,*,#332,.F.);
#145=ORIENTED_EDGE('',*,*,#330,.T.);
#146=ORIENTED_EDGE('',*,*,#329,.F.);
#147=ORIENTED_EDGE('',*,*,#333,.T.);
#148=ORIENTED_EDGE('',*,*,#334,.T.);
#149=ORIENTED_EDGE('',*,*,#335,.T.);
#150=ORIENTED_EDGE('',*,*,#273,.T.);
#151=ORIENTED_EDGE('',*,*,#296,.T.);
#152=ORIENTED_EDGE('',*,*,#331,.F.);
#153=ORIENTED_EDGE('',*,*,#336,.F.);
#154=ORIENTED_EDGE('',*,*,#337,.T.);
#155=ORIENTED_EDGE('',*,*,#327,.T.);
#156=ORIENTED_EDGE('',*,*,#332,.T.);
#157=ORIENTED_EDGE('',*,*,#294,.F.);
#158=ORIENTED_EDGE('',*,*,#271,.F.);
#159=ORIENTED_EDGE('',*,*,#338,.F.);
#160=ORIENTED_EDGE('',*,*,#339,.F.);
#161=ORIENTED_EDGE('',*,*,#340,.T.);
#162=ORIENTED_EDGE('',*,*,#341,.T.);
#163=ORIENTED_EDGE('',*,*,#342,.F.);
#164=ORIENTED_EDGE('',*,*,#343,.T.);
#165=ORIENTED_EDGE('',*,*,#298,.F.);
#166=ORIENTED_EDGE('',*,*,#344,.F.);
#167=ORIENTED_EDGE('',*,*,#342,.T.);
#168=ORIENTED_EDGE('',*,*,#341,.F.);
#169=ORIENTED_EDGE('',*,*,#345,.T.);
#170=ORIENTED_EDGE('',*,*,#346,.T.);
#171=ORIENTED_EDGE('',*,*,#347,.T.);
#172=ORIENTED_EDGE('',*,*,#269,.T.);
#173=ORIENTED_EDGE('',*,*,#299,.T.);
#174=ORIENTED_EDGE('',*,*,#343,.F.);
#175=ORIENTED_EDGE('',*,*,#348,.F.);
#176=ORIENTED_EDGE('',*,*,#349,.T.);
#177=ORIENTED_EDGE('',*,*,#339,.T.);
#178=ORIENTED_EDGE('',*,*,#344,.T.);
#179=ORIENTED_EDGE('',*,*,#297,.F.);
#180=ORIENTED_EDGE('',*,*,#267,.F.);
#181=ORIENTED_EDGE('',*,*,#350,.F.);
#182=ORIENTED_EDGE('',*,*,#270,.T.);
#183=ORIENTED_EDGE('',*,*,#335,.F.);
#184=ORIENTED_EDGE('',*,*,#351,.F.);
#185=ORIENTED_EDGE('',*,*,#338,.T.);
#186=ORIENTED_EDGE('',*,*,#334,.F.);
#187=ORIENTED_EDGE('',*,*,#352,.T.);
#188=ORIENTED_EDGE('',*,*,#336,.T.);
#189=ORIENTED_EDGE('',*,*,#351,.T.);
#190=ORIENTED_EDGE('',*,*,#266,.T.);
#191=ORIENTED_EDGE('',*,*,#347,.F.);
#192=ORIENTED_EDGE('',*,*,#353,.F.);
#193=ORIENTED_EDGE('',*,*,#350,.T.);
#194=ORIENTED_EDGE('',*,*,#346,.F.);
#195=ORIENTED_EDGE('',*,*,#354,.T.);
#196=ORIENTED_EDGE('',*,*,#348,.T.);
#197=ORIENTED_EDGE('',*,*,#353,.T.);
#198=ORIENTED_EDGE('',*,*,#316,.T.);
#199=ORIENTED_EDGE('',*,*,#326,.F.);
#200=ORIENTED_EDGE('',*,*,#355,.F.);
#201=ORIENTED_EDGE('',*,*,#322,.T.);
#202=ORIENTED_EDGE('',*,*,#325,.F.);
#203=ORIENTED_EDGE('',*,*,#356,.T.);
#204=ORIENTED_EDGE('',*,*,#319,.T.);
#205=ORIENTED_EDGE('',*,*,#355,.T.);
#206=ORIENTED_EDGE('',*,*,#324,.F.);
#207=ORIENTED_EDGE('',*,*,#313,.F.);
#208=ORIENTED_EDGE('',*,*,#320,.F.);
#209=ORIENTED_EDGE('',*,*,#356,.F.);
#210=ORIENTED_EDGE('',*,*,#349,.F.);
#211=ORIENTED_EDGE('',*,*,#354,.F.);
#212=ORIENTED_EDGE('',*,*,#345,.F.);
#213=ORIENTED_EDGE('',*,*,#340,.F.);
#214=ORIENTED_EDGE('',*,*,#337,.F.);
#215=ORIENTED_EDGE('',*,*,#352,.F.);
#216=ORIENTED_EDGE('',*,*,#333,.F.);
#217=ORIENTED_EDGE('',*,*,#328,.F.);
#218=ORIENTED_EDGE('',*,*,#284,.F.);
#219=ORIENTED_EDGE('',*,*,#357,.T.);
#220=ORIENTED_EDGE('',*,*,#286,.F.);
#221=ORIENTED_EDGE('',*,*,#300,.F.);
#222=ORIENTED_EDGE('',*,*,#280,.F.);
#223=ORIENTED_EDGE('',*,*,#358,.T.);
#224=ORIENTED_EDGE('',*,*,#282,.F.);
#225=ORIENTED_EDGE('',*,*,#303,.F.);
#226=ORIENTED_EDGE('',*,*,#288,.F.);
#227=ORIENTED_EDGE('',*,*,#359,.T.);
#228=ORIENTED_EDGE('',*,*,#274,.F.);
#229=ORIENTED_EDGE('',*,*,#301,.F.);
#230=ORIENTED_EDGE('',*,*,#276,.F.);
#231=ORIENTED_EDGE('',*,*,#360,.T.);
#232=ORIENTED_EDGE('',*,*,#278,.F.);
#233=ORIENTED_EDGE('',*,*,#302,.F.);
#234=ORIENTED_EDGE('',*,*,#361,.F.);
#235=ORIENTED_EDGE('',*,*,#279,.F.);
#236=ORIENTED_EDGE('',*,*,#362,.F.);
#237=ORIENTED_EDGE('',*,*,#309,.F.);
#238=ORIENTED_EDGE('',*,*,#362,.T.);
#239=ORIENTED_EDGE('',*,*,#360,.F.);
#240=ORIENTED_EDGE('',*,*,#363,.F.);
#241=ORIENTED_EDGE('',*,*,#310,.F.);
#242=ORIENTED_EDGE('',*,*,#361,.T.);
#243=ORIENTED_EDGE('',*,*,#308,.F.);
#244=ORIENTED_EDGE('',*,*,#364,.F.);
#245=ORIENTED_EDGE('',*,*,#358,.F.);
#246=ORIENTED_EDGE('',*,*,#363,.T.);
#247=ORIENTED_EDGE('',*,*,#275,.F.);
#248=ORIENTED_EDGE('',*,*,#365,.F.);
#249=ORIENTED_EDGE('',*,*,#311,.F.);
#250=ORIENTED_EDGE('',*,*,#364,.T.);
#251=ORIENTED_EDGE('',*,*,#307,.F.);
#252=ORIENTED_EDGE('',*,*,#366,.F.);
#253=ORIENTED_EDGE('',*,*,#283,.F.);
#254=ORIENTED_EDGE('',*,*,#365,.T.);
#255=ORIENTED_EDGE('',*,*,#359,.F.);
#256=ORIENTED_EDGE('',*,*,#367,.F.);
#257=ORIENTED_EDGE('',*,*,#304,.F.);
#258=ORIENTED_EDGE('',*,*,#366,.T.);
#259=ORIENTED_EDGE('',*,*,#306,.F.);
#260=ORIENTED_EDGE('',*,*,#368,.F.);
#261=ORIENTED_EDGE('',*,*,#357,.F.);
#262=ORIENTED_EDGE('',*,*,#367,.T.);
#263=ORIENTED_EDGE('',*,*,#287,.F.);
#264=ORIENTED_EDGE('',*,*,#368,.T.);
#265=ORIENTED_EDGE('',*,*,#305,.F.);
#266=EDGE_CURVE('',#369,#370,#435,.T.);
#267=EDGE_CURVE('',#369,#371,#436,.T.);
#268=EDGE_CURVE('',#371,#372,#437,.T.);
#269=EDGE_CURVE('',#370,#372,#438,.T.);
#270=EDGE_CURVE('',#373,#374,#439,.T.);
#271=EDGE_CURVE('',#373,#375,#440,.T.);
#272=EDGE_CURVE('',#375,#376,#441,.T.);
#273=EDGE_CURVE('',#374,#376,#442,.T.);
#274=EDGE_CURVE('',#377,#378,#24,.T.);
#275=EDGE_CURVE('',#378,#379,#25,.T.);
#276=EDGE_CURVE('',#379,#380,#26,.T.);
#277=EDGE_CURVE('',#380,#377,#443,.T.);
#278=EDGE_CURVE('',#381,#382,#27,.T.);
#279=EDGE_CURVE('',#382,#383,#28,.T.);
#280=EDGE_CURVE('',#383,#384,#29,.T.);
#281=EDGE_CURVE('',#381,#384,#444,.T.);
#282=EDGE_CURVE('',#385,#386,#30,.T.);
#283=EDGE_CURVE('',#386,#387,#31,.T.);
#284=EDGE_CURVE('',#387,#388,#32,.T.);
#285=EDGE_CURVE('',#385,#388,#445,.T.);
#286=EDGE_CURVE('',#389,#390,#33,.T.);
#287=EDGE_CURVE('',#390,#391,#34,.T.);
#288=EDGE_CURVE('',#391,#392,#35,.T.);
#289=EDGE_CURVE('',#392,#389,#446,.T.);
#290=EDGE_CURVE('',#393,#394,#447,.T.);
#291=EDGE_CURVE('',#393,#395,#448,.T.);
#292=EDGE_CURVE('',#395,#396,#449,.T.);
#293=EDGE_CURVE('',#394,#396,#450,.T.);
#294=EDGE_CURVE('',#375,#397,#451,.T.);
#295=EDGE_CURVE('',#397,#398,#452,.T.);
#296=EDGE_CURVE('',#376,#398,#453,.T.);
#297=EDGE_CURVE('',#371,#399,#454,.T.);
#298=EDGE_CURVE('',#399,#400,#455,.T.);
#299=EDGE_CURVE('',#372,#400,#456,.T.);
#300=EDGE_CURVE('',#388,#389,#36,.T.);
#301=EDGE_CURVE('',#392,#377,#37,.T.);
#302=EDGE_CURVE('',#380,#381,#38,.T.);
#303=EDGE_CURVE('',#384,#385,#39,.T.);
#304=EDGE_CURVE('',#401,#402,#40,.T.);
#305=EDGE_CURVE('',#402,#403,#41,.T.);
#306=EDGE_CURVE('',#403,#404,#42,.T.);
#307=EDGE_CURVE('',#404,#405,#43,.T.);
#308=EDGE_CURVE('',#405,#406,#44,.T.);
#309=EDGE_CURVE('',#406,#407,#45,.T.);
#310=EDGE_CURVE('',#407,#408,#46,.T.);
#311=EDGE_CURVE('',#408,#401,#47,.T.);
#312=EDGE_CURVE('',#409,#410,#457,.T.);
#313=EDGE_CURVE('',#410,#411,#458,.T.);
#314=EDGE_CURVE('',#412,#411,#459,.T.);
#315=EDGE_CURVE('',#412,#409,#460,.T.);
#316=EDGE_CURVE('',#413,#414,#461,.T.);
#317=EDGE_CURVE('',#413,#396,#462,.T.);
#318=EDGE_CURVE('',#414,#395,#463,.T.);
#319=EDGE_CURVE('',#415,#416,#464,.T.);
#320=EDGE_CURVE('',#415,#410,#465,.F.);
#321=EDGE_CURVE('',#409,#394,#466,.T.);
#322=EDGE_CURVE('',#416,#413,#467,.T.);
#323=EDGE_CURVE('',#412,#393,#468,.T.);
#324=EDGE_CURVE('',#411,#417,#469,.F.);
#325=EDGE_CURVE('',#417,#418,#470,.T.);
#326=EDGE_CURVE('',#418,#414,#471,.T.);
#327=EDGE_CURVE('',#419,#420,#472,.T.);
#328=EDGE_CURVE('',#419,#421,#473,.T.);
#329=EDGE_CURVE('',#421,#422,#474,.T.);
#330=EDGE_CURVE('',#420,#422,#475,.T.);
#331=EDGE_CURVE('',#422,#398,#476,.T.);
#332=EDGE_CURVE('',#420,#397,#477,.T.);
#333=EDGE_CURVE('',#421,#423,#478,.F.);
#334=EDGE_CURVE('',#423,#424,#479,.T.);
#335=EDGE_CURVE('',#424,#374,#480,.T.);
#336=EDGE_CURVE('',#425,#426,#481,.T.);
#337=EDGE_CURVE('',#425,#419,#482,.F.);
#338=EDGE_CURVE('',#426,#373,#483,.T.);
#339=EDGE_CURVE('',#427,#428,#484,.T.);
#340=EDGE_CURVE('',#427,#429,#485,.T.);
#341=EDGE_CURVE('',#429,#430,#486,.T.);
#342=EDGE_CURVE('',#428,#430,#487,.T.);
#343=EDGE_CURVE('',#430,#400,#488,.T.);
#344=EDGE_CURVE('',#428,#399,#489,.T.);
#345=EDGE_CURVE('',#429,#431,#490,.F.);
#346=EDGE_CURVE('',#431,#432,#491,.T.);
#347=EDGE_CURVE('',#432,#370,#492,.T.);
#348=EDGE_CURVE('',#433,#434,#493,.T.);
#349=EDGE_CURVE('',#433,#427,#494,.F.);
#350=EDGE_CURVE('',#434,#369,#495,.T.);
#351=EDGE_CURVE('',#426,#424,#496,.T.);
#352=EDGE_CURVE('',#423,#425,#497,.T.);
#353=EDGE_CURVE('',#434,#432,#498,.T.);
#354=EDGE_CURVE('',#431,#433,#499,.T.);
#355=EDGE_CURVE('',#416,#418,#500,.T.);
#356=EDGE_CURVE('',#417,#415,#501,.T.);
#357=EDGE_CURVE('',#387,#390,#48,.T.);
#358=EDGE_CURVE('',#383,#386,#49,.T.);
#359=EDGE_CURVE('',#391,#378,#50,.T.);
#360=EDGE_CURVE('',#379,#382,#51,.T.);
#361=EDGE_CURVE('',#383,#406,#52,.F.);
#362=EDGE_CURVE('',#407,#382,#53,.F.);
#363=EDGE_CURVE('',#408,#379,#54,.T.);
#364=EDGE_CURVE('',#386,#405,#55,.T.);
#365=EDGE_CURVE('',#401,#378,#56,.F.);
#366=EDGE_CURVE('',#387,#404,#57,.F.);
#367=EDGE_CURVE('',#402,#391,#58,.T.);
#368=EDGE_CURVE('',#390,#403,#59,.T.);
#369=VERTEX_POINT('',#906);
#370=VERTEX_POINT('',#907);
#371=VERTEX_POINT('',#909);
#372=VERTEX_POINT('',#911);
#373=VERTEX_POINT('',#915);
#374=VERTEX_POINT('',#916);
#375=VERTEX_POINT('',#918);
#376=VERTEX_POINT('',#920);
#377=VERTEX_POINT('',#927);
#378=VERTEX_POINT('',#928);
#379=VERTEX_POINT('',#933);
#380=VERTEX_POINT('',#938);
#381=VERTEX_POINT('',#945);
#382=VERTEX_POINT('',#946);
#383=VERTEX_POINT('',#951);
#384=VERTEX_POINT('',#956);
#385=VERTEX_POINT('',#963);
#386=VERTEX_POINT('',#964);
#387=VERTEX_POINT('',#969);
#388=VERTEX_POINT('',#974);
#389=VERTEX_POINT('',#981);
#390=VERTEX_POINT('',#982);
#391=VERTEX_POINT('',#987);
#392=VERTEX_POINT('',#992);
#393=VERTEX_POINT('',#996);
#394=VERTEX_POINT('',#997);
#395=VERTEX_POINT('',#999);
#396=VERTEX_POINT('',#1001);
#397=VERTEX_POINT('',#1004);
#398=VERTEX_POINT('',#1006);
#399=VERTEX_POINT('',#1009);
#400=VERTEX_POINT('',#1011);
#401=VERTEX_POINT('',#1034);
#402=VERTEX_POINT('',#1035);
#403=VERTEX_POINT('',#1040);
#404=VERTEX_POINT('',#1045);
#405=VERTEX_POINT('',#1050);
#406=VERTEX_POINT('',#1055);
#407=VERTEX_POINT('',#1060);
#408=VERTEX_POINT('',#1065);
#409=VERTEX_POINT('',#1072);
#410=VERTEX_POINT('',#1073);
#411=VERTEX_POINT('',#1075);
#412=VERTEX_POINT('',#1077);
#413=VERTEX_POINT('',#1081);
#414=VERTEX_POINT('',#1082);
#415=VERTEX_POINT('',#1087);
#416=VERTEX_POINT('',#1088);
#417=VERTEX_POINT('',#1096);
#418=VERTEX_POINT('',#1098);
#419=VERTEX_POINT('',#1102);
#420=VERTEX_POINT('',#1103);
#421=VERTEX_POINT('',#1105);
#422=VERTEX_POINT('',#1107);
#423=VERTEX_POINT('',#1114);
#424=VERTEX_POINT('',#1116);
#425=VERTEX_POINT('',#1120);
#426=VERTEX_POINT('',#1121);
#427=VERTEX_POINT('',#1126);
#428=VERTEX_POINT('',#1127);
#429=VERTEX_POINT('',#1129);
#430=VERTEX_POINT('',#1131);
#431=VERTEX_POINT('',#1138);
#432=VERTEX_POINT('',#1140);
#433=VERTEX_POINT('',#1144);
#434=VERTEX_POINT('',#1145);
#435=LINE('',#905,#502);
#436=LINE('',#908,#503);
#437=LINE('',#910,#504);
#438=LINE('',#912,#505);
#439=LINE('',#914,#506);
#440=LINE('',#917,#507);
#441=LINE('',#919,#508);
#442=LINE('',#921,#509);
#443=LINE('',#939,#510);
#444=LINE('',#957,#511);
#445=LINE('',#975,#512);
#446=LINE('',#993,#513);
#447=LINE('',#995,#514);
#448=LINE('',#998,#515);
#449=LINE('',#1000,#516);
#450=LINE('',#1002,#517);
#451=LINE('',#1003,#518);
#452=LINE('',#1005,#519);
#453=LINE('',#1007,#520);
#454=LINE('',#1008,#521);
#455=LINE('',#1010,#522);
#456=LINE('',#1012,#523);
#457=LINE('',#1071,#524);
#458=LINE('',#1074,#525);
#459=LINE('',#1076,#526);
#460=LINE('',#1078,#527);
#461=LINE('',#1080,#528);
#462=LINE('',#1083,#529);
#463=LINE('',#1084,#530);
#464=LINE('',#1086,#531);
#465=LINE('',#1089,#532);
#466=LINE('',#1090,#533);
#467=LINE('',#1091,#534);
#468=LINE('',#1093,#535);
#469=LINE('',#1095,#536);
#470=LINE('',#1097,#537);
#471=LINE('',#1099,#538);
#472=LINE('',#1101,#539);
#473=LINE('',#1104,#540);
#474=LINE('',#1106,#541);
#475=LINE('',#1108,#542);
#476=LINE('',#1110,#543);
#477=LINE('',#1111,#544);
#478=LINE('',#1113,#545);
#479=LINE('',#1115,#546);
#480=LINE('',#1117,#547);
#481=LINE('',#1119,#548);
#482=LINE('',#1122,#549);
#483=LINE('',#1123,#550);
#484=LINE('',#1125,#551);
#485=LINE('',#1128,#552);
#486=LINE('',#1130,#553);
#487=LINE('',#1132,#554);
#488=LINE('',#1134,#555);
#489=LINE('',#1135,#556);
#490=LINE('',#1137,#557);
#491=LINE('',#1139,#558);
#492=LINE('',#1141,#559);
#493=LINE('',#1143,#560);
#494=LINE('',#1146,#561);
#495=LINE('',#1147,#562);
#496=LINE('',#1149,#563);
#497=LINE('',#1151,#564);
#498=LINE('',#1153,#565);
#499=LINE('',#1155,#566);
#500=LINE('',#1157,#567);
#501=LINE('',#1159,#568);
#502=VECTOR('',#778,1.);
#503=VECTOR('',#779,1.);
#504=VECTOR('',#780,1.);
#505=VECTOR('',#781,1.);
#506=VECTOR('',#784,1.);
#507=VECTOR('',#785,1.);
#508=VECTOR('',#786,1.);
#509=VECTOR('',#787,1.);
#510=VECTOR('',#790,1.);
#511=VECTOR('',#793,1.);
#512=VECTOR('',#796,1.);
#513=VECTOR('',#799,1.);
#514=VECTOR('',#802,1.);
#515=VECTOR('',#803,1.);
#516=VECTOR('',#804,1.);
#517=VECTOR('',#805,1.);
#518=VECTOR('',#806,1.);
#519=VECTOR('',#807,1.);
#520=VECTOR('',#808,1.);
#521=VECTOR('',#809,1.);
#522=VECTOR('',#810,1.);
#523=VECTOR('',#811,1.);
#524=VECTOR('',#816,1.);
#525=VECTOR('',#817,1.);
#526=VECTOR('',#818,1.);
#527=VECTOR('',#819,1.);
#528=VECTOR('',#822,1.);
#529=VECTOR('',#823,1.);
#530=VECTOR('',#824,1.);
#531=VECTOR('',#827,1.);
#532=VECTOR('',#828,1.);
#533=VECTOR('',#829,1.);
#534=VECTOR('',#830,1.);
#535=VECTOR('',#833,1.);
#536=VECTOR('',#836,1.);
#537=VECTOR('',#837,1.);
#538=VECTOR('',#838,1.);
#539=VECTOR('',#841,1.);
#540=VECTOR('',#842,1.);
#541=VECTOR('',#843,1.);
#542=VECTOR('',#844,1.);
#543=VECTOR('',#847,1.);
#544=VECTOR('',#848,1.);
#545=VECTOR('',#851,1.);
#546=VECTOR('',#852,1.);
#547=VECTOR('',#853,1.);
#548=VECTOR('',#856,1.);
#549=VECTOR('',#857,1.);
#550=VECTOR('',#858,1.);
#551=VECTOR('',#861,1.);
#552=VECTOR('',#862,1.);
#553=VECTOR('',#863,1.);
#554=VECTOR('',#864,1.);
#555=VECTOR('',#867,1.);
#556=VECTOR('',#868,1.);
#557=VECTOR('',#871,1.);
#558=VECTOR('',#872,1.);
#559=VECTOR('',#873,1.);
#560=VECTOR('',#876,1.);
#561=VECTOR('',#877,1.);
#562=VECTOR('',#878,1.);
#563=VECTOR('',#881,1.);
#564=VECTOR('',#884,1.);
#565=VECTOR('',#887,1.);
#566=VECTOR('',#890,1.);
#567=VECTOR('',#893,1.);
#568=VECTOR('',#896,1.);
#569=EDGE_LOOP('',(#60,#61,#62,#63));
#570=EDGE_LOOP('',(#64,#65,#66,#67));
#571=EDGE_LOOP('',(#68,#69,#70,#71));
#572=EDGE_LOOP('',(#72,#73,#74,#75));
#573=EDGE_LOOP('',(#76,#77,#78,#79));
#574=EDGE_LOOP('',(#80,#81,#82,#83));
#575=EDGE_LOOP('',(#84,#85,#86,#87));
#576=EDGE_LOOP('',(#88,#89,#90,#91));
#577=EDGE_LOOP('',(#92,#93,#94,#95));
#578=EDGE_LOOP('',(#96,#97,#98,#99,#100,#101,#102,#103));
#579=EDGE_LOOP('',(#104,#105,#106,#107,#108,#109,#110,#111));
#580=EDGE_LOOP('',(#112,#113,#114,#115));
#581=EDGE_LOOP('',(#116,#117,#118,#119));
#582=EDGE_LOOP('',(#120,#121,#122,#123,#124,#125,#126));
#583=EDGE_LOOP('',(#127,#128,#129,#130));
#584=EDGE_LOOP('',(#131,#132,#133,#134,#135,#136,#137));
#585=EDGE_LOOP('',(#138,#139,#140,#141));
#586=EDGE_LOOP('',(#142,#143,#144,#145));
#587=EDGE_LOOP('',(#146,#147,#148,#149,#150,#151,#152));
#588=EDGE_LOOP('',(#153,#154,#155,#156,#157,#158,#159));
#589=EDGE_LOOP('',(#160,#161,#162,#163));
#590=EDGE_LOOP('',(#164,#165,#166,#167));
#591=EDGE_LOOP('',(#168,#169,#170,#171,#172,#173,#174));
#592=EDGE_LOOP('',(#175,#176,#177,#178,#179,#180,#181));
#593=EDGE_LOOP('',(#182,#183,#184,#185));
#594=EDGE_LOOP('',(#186,#187,#188,#189));
#595=EDGE_LOOP('',(#190,#191,#192,#193));
#596=EDGE_LOOP('',(#194,#195,#196,#197));
#597=EDGE_LOOP('',(#198,#199,#200,#201));
#598=EDGE_LOOP('',(#202,#203,#204,#205));
#599=EDGE_LOOP('',(#206,#207,#208,#209));
#600=EDGE_LOOP('',(#210,#211,#212,#213));
#601=EDGE_LOOP('',(#214,#215,#216,#217));
#602=EDGE_LOOP('',(#218,#219,#220,#221));
#603=EDGE_LOOP('',(#222,#223,#224,#225));
#604=EDGE_LOOP('',(#226,#227,#228,#229));
#605=EDGE_LOOP('',(#230,#231,#232,#233));
#606=EDGE_LOOP('',(#234,#235,#236,#237));
#607=EDGE_LOOP('',(#238,#239,#240,#241));
#608=EDGE_LOOP('',(#242,#243,#244,#245));
#609=EDGE_LOOP('',(#246,#247,#248,#249));
#610=EDGE_LOOP('',(#250,#251,#252,#253));
#611=EDGE_LOOP('',(#254,#255,#256,#257));
#612=EDGE_LOOP('',(#258,#259,#260,#261));
#613=EDGE_LOOP('',(#262,#263,#264,#265));
#614=FACE_BOUND('',#569,.T.);
#615=FACE_BOUND('',#570,.T.);
#616=FACE_BOUND('',#571,.T.);
#617=FACE_BOUND('',#572,.T.);
#618=FACE_BOUND('',#573,.T.);
#619=FACE_BOUND('',#574,.T.);
#620=FACE_BOUND('',#575,.T.);
#621=FACE_BOUND('',#576,.T.);
#622=FACE_BOUND('',#577,.T.);
#623=FACE_BOUND('',#578,.T.);
#624=FACE_BOUND('',#579,.T.);
#625=FACE_BOUND('',#580,.T.);
#626=FACE_BOUND('',#581,.T.);
#627=FACE_BOUND('',#582,.T.);
#628=FACE_BOUND('',#583,.T.);
#629=FACE_BOUND('',#584,.T.);
#630=FACE_BOUND('',#585,.T.);
#631=FACE_BOUND('',#586,.T.);
#632=FACE_BOUND('',#587,.T.);
#633=FACE_BOUND('',#588,.T.);
#634=FACE_BOUND('',#589,.T.);
#635=FACE_BOUND('',#590,.T.);
#636=FACE_BOUND('',#591,.T.);
#637=FACE_BOUND('',#592,.T.);
#638=FACE_BOUND('',#593,.T.);
#639=FACE_BOUND('',#594,.T.);
#640=FACE_BOUND('',#595,.T.);
#641=FACE_BOUND('',#596,.T.);
#642=FACE_BOUND('',#597,.T.);
#643=FACE_BOUND('',#598,.T.);
#644=FACE_BOUND('',#599,.T.);
#645=FACE_BOUND('',#600,.T.);
#646=FACE_BOUND('',#601,.T.);
#647=FACE_BOUND('',#602,.T.);
#648=FACE_BOUND('',#603,.T.);
#649=FACE_BOUND('',#604,.T.);
#650=FACE_BOUND('',#605,.T.);
#651=FACE_BOUND('',#606,.T.);
#652=FACE_BOUND('',#607,.T.);
#653=FACE_BOUND('',#608,.T.);
#654=FACE_BOUND('',#609,.T.);
#655=FACE_BOUND('',#610,.T.);
#656=FACE_BOUND('',#611,.T.);
#657=FACE_BOUND('',#612,.T.);
#658=FACE_BOUND('',#613,.T.);
#659=PLANE('',#744);
#660=PLANE('',#745);
#661=PLANE('',#746);
#662=PLANE('',#747);
#663=PLANE('',#748);
#664=PLANE('',#749);
#665=PLANE('',#750);
#666=PLANE('',#751);
#667=PLANE('',#752);
#668=PLANE('',#753);
#669=PLANE('',#754);
#670=PLANE('',#755);
#671=PLANE('',#756);
#672=PLANE('',#757);
#673=PLANE('',#758);
#674=PLANE('',#759);
#675=PLANE('',#760);
#676=PLANE('',#761);
#677=PLANE('',#762);
#678=PLANE('',#763);
#679=PLANE('',#764);
#680=PLANE('',#765);
#681=PLANE('',#766);
#682=PLANE('',#767);
#683=PLANE('',#768);
#684=PLANE('',#769);
#685=PLANE('',#770);
#686=PLANE('',#771);
#687=PLANE('',#772);
#688=PLANE('',#773);
#689=ADVANCED_FACE('',(#614),#659,.F.);
#690=ADVANCED_FACE('',(#615),#660,.F.);
#691=ADVANCED_FACE('',(#616),#661,.T.);
#692=ADVANCED_FACE('',(#617),#662,.F.);
#693=ADVANCED_FACE('',(#618),#663,.F.);
#694=ADVANCED_FACE('',(#619),#664,.T.);
#695=ADVANCED_FACE('',(#620,#621,#622,#623),#665,.T.);
#696=ADVANCED_FACE('',(#624),#666,.F.);
#697=ADVANCED_FACE('',(#625),#667,.T.);
#698=ADVANCED_FACE('',(#626),#668,.T.);
#699=ADVANCED_FACE('',(#627),#669,.F.);
#700=ADVANCED_FACE('',(#628),#670,.F.);
#701=ADVANCED_FACE('',(#629),#671,.T.);
#702=ADVANCED_FACE('',(#630),#672,.T.);
#703=ADVANCED_FACE('',(#631),#673,.T.);
#704=ADVANCED_FACE('',(#632),#674,.F.);
#705=ADVANCED_FACE('',(#633),#675,.T.);
#706=ADVANCED_FACE('',(#634),#676,.T.);
#707=ADVANCED_FACE('',(#635),#677,.T.);
#708=ADVANCED_FACE('',(#636),#678,.F.);
#709=ADVANCED_FACE('',(#637),#679,.T.);
#710=ADVANCED_FACE('',(#638),#680,.F.);
#711=ADVANCED_FACE('',(#639),#681,.T.);
#712=ADVANCED_FACE('',(#640),#682,.F.);
#713=ADVANCED_FACE('',(#641),#683,.T.);
#714=ADVANCED_FACE('',(#642),#684,.F.);
#715=ADVANCED_FACE('',(#643),#685,.T.);
#716=ADVANCED_FACE('',(#644),#686,.F.);
#717=ADVANCED_FACE('',(#645),#687,.F.);
#718=ADVANCED_FACE('',(#646),#688,.F.);
#719=ADVANCED_FACE('',(#647),#12,.T.);
#720=ADVANCED_FACE('',(#648),#13,.T.);
#721=ADVANCED_FACE('',(#649),#14,.T.);
#722=ADVANCED_FACE('',(#650),#15,.T.);
#723=ADVANCED_FACE('',(#651),#16,.T.);
#724=ADVANCED_FACE('',(#652),#17,.T.);
#725=ADVANCED_FACE('',(#653),#18,.T.);
#726=ADVANCED_FACE('',(#654),#19,.T.);
#727=ADVANCED_FACE('',(#655),#20,.T.);
#728=ADVANCED_FACE('',(#656),#21,.T.);
#729=ADVANCED_FACE('',(#657),#22,.T.);
#730=ADVANCED_FACE('',(#658),#23,.T.);
#731=CLOSED_SHELL('',(#689,#690,#691,#692,#693,#694,#695,#696,#697,#698,#699,#700,#701,#702,#703,#704,#705,#706,#707,#708,#709,#710,#711,#712,#713,#714,#715,#716,#717,#718,#719,#720,#721,#722,#723,#724,#725,#726,#727,#728,#729,#730));
#732=STYLED_ITEM('',(#733),#740);
#733=PRESENTATION_STYLE_ASSIGNMENT((#734));
#734=SURFACE_STYLE_USAGE(.BOTH.,#735);
#735=SURFACE_SIDE_STYLE('',(#736));
#736=SURFACE_STYLE_FILL_AREA(#737);
#737=FILL_AREA_STYLE('',(#738));
#738=FILL_AREA_STYLE_COLOUR('',#739);
#739=COLOUR_RGB('',0.615686274509804,0.811764705882353,0.929411764705882);
#740=MANIFOLD_SOLID_BREP('Part 1',#731);
#741=SHAPE_DEFINITION_REPRESENTATION(#1449,#742);
#742=SHAPE_REPRESENTATION('Part 1',(#743),#1444);
#743=AXIS2_PLACEMENT_3D('',#903,#774,#775);
#744=AXIS2_PLACEMENT_3D('',#904,#776,#777);
#745=AXIS2_PLACEMENT_3D('',#913,#782,#783);
#746=AXIS2_PLACEMENT_3D('',#922,#788,#789);
#747=AXIS2_PLACEMENT_3D('',#940,#791,#792);
#748=AXIS2_PLACEMENT_3D('',#958,#794,#795);
#749=AXIS2_PLACEMENT_3D('',#976,#797,#798);
#750=AXIS2_PLACEMENT_3D('',#994,#800,#801);
#751=AXIS2_PLACEMENT_3D('',#1029,#812,#813);
#752=AXIS2_PLACEMENT_3D('',#1070,#814,#815);
#753=AXIS2_PLACEMENT_3D('',#1079,#820,#821);
#754=AXIS2_PLACEMENT_3D('',#1085,#825,#826);
#755=AXIS2_PLACEMENT_3D('',#1092,#831,#832);
#756=AXIS2_PLACEMENT_3D('',#1094,#834,#835);
#757=AXIS2_PLACEMENT_3D('',#1100,#839,#840);
#758=AXIS2_PLACEMENT_3D('',#1109,#845,#846);
#759=AXIS2_PLACEMENT_3D('',#1112,#849,#850);
#760=AXIS2_PLACEMENT_3D('',#1118,#854,#855);
#761=AXIS2_PLACEMENT_3D('',#1124,#859,#860);
#762=AXIS2_PLACEMENT_3D('',#1133,#865,#866);
#763=AXIS2_PLACEMENT_3D('',#1136,#869,#870);
#764=AXIS2_PLACEMENT_3D('',#1142,#874,#875);
#765=AXIS2_PLACEMENT_3D('',#1148,#879,#880);
#766=AXIS2_PLACEMENT_3D('',#1150,#882,#883);
#767=AXIS2_PLACEMENT_3D('',#1152,#885,#886);
#768=AXIS2_PLACEMENT_3D('',#1154,#888,#889);
#769=AXIS2_PLACEMENT_3D('',#1156,#891,#892);
#770=AXIS2_PLACEMENT_3D('',#1158,#894,#895);
#771=AXIS2_PLACEMENT_3D('',#1160,#897,#898);
#772=AXIS2_PLACEMENT_3D('',#1161,#899,#900);
#773=AXIS2_PLACEMENT_3D('',#1162,#901,#902);
#774=DIRECTION('',(0.,0.,1.));
#775=DIRECTION('',(1.,0.,0.));
#776=DIRECTION('',(1.,0.,0.));
#777=DIRECTION('',(0.,0.,-1.));
#778=DIRECTION('',(0.,-1.,0.));
#779=DIRECTION('',(0.,0.,-1.));
#780=DIRECTION('',(0.,-1.,0.));
#781=DIRECTION('',(0.,0.,-1.));
#782=DIRECTION('',(0.,1.,0.));
#783=DIRECTION('',(0.,0.,1.));
#784=DIRECTION('',(1.,0.,0.));
#785=DIRECTION('',(0.,0.,-1.));
#786=DIRECTION('',(1.,0.,0.));
#787=DIRECTION('',(0.,0.,-1.));
#788=DIRECTION('',(0.,1.,0.));
#789=DIRECTION('',(0.,0.,1.));
#790=DIRECTION('',(1.,0.,0.));
#791=DIRECTION('',(1.,0.,0.));
#792=DIRECTION('',(0.,0.,-1.));
#793=DIRECTION('',(0.,-1.,0.));
#794=DIRECTION('',(0.,1.,0.));
#795=DIRECTION('',(0.,0.,1.));
#796=DIRECTION('',(1.,0.,0.));
#797=DIRECTION('',(1.,0.,0.));
#798=DIRECTION('',(0.,0.,-1.));
#799=DIRECTION('',(0.,-1.,0.));
#800=DIRECTION('',(0.,0.,1.));
#801=DIRECTION('',(1.,0.,0.));
#802=DIRECTION('',(1.,0.,0.));
#803=DIRECTION('',(0.,1.,0.));
#804=DIRECTION('',(1.,0.,0.));
#805=DIRECTION('',(0.,1.,0.));
#806=DIRECTION('',(0.,1.,0.));
#807=DIRECTION('',(1.,0.,0.));
#808=DIRECTION('',(0.,1.,0.));
#809=DIRECTION('',(1.,0.,0.));
#810=DIRECTION('',(0.,-1.,0.));
#811=DIRECTION('',(1.,0.,0.));
#812=DIRECTION('',(0.,0.,1.));
#813=DIRECTION('',(1.,0.,0.));
#814=DIRECTION('',(0.,0.,1.));
#815=DIRECTION('',(1.,0.,0.));
#816=DIRECTION('',(0.,1.,0.));
#817=DIRECTION('',(-1.,0.,0.));
#818=DIRECTION('',(0.,1.,0.));
#819=DIRECTION('',(1.,0.,0.));
#820=DIRECTION('',(0.,1.,0.));
#821=DIRECTION('',(0.,0.,1.));
#822=DIRECTION('',(-1.,0.,0.));
#823=DIRECTION('',(0.,0.,-1.));
#824=DIRECTION('',(0.,0.,-1.));
#825=DIRECTION('',(-1.,0.,0.));
#826=DIRECTION('',(0.,0.,1.));
#827=DIRECTION('',(0.,0.,-1.));
#828=DIRECTION('',(0.,0.707106781186548,-0.707106781186548));
#829=DIRECTION('',(0.,0.,-1.));
#830=DIRECTION('',(0.,-1.,0.));
#831=DIRECTION('',(0.,1.,0.));
#832=DIRECTION('',(0.,0.,1.));
#833=DIRECTION('',(0.,0.,-1.));
#834=DIRECTION('',(-1.,0.,0.));
#835=DIRECTION('',(0.,0.,1.));
#836=DIRECTION('',(0.,-0.707106781186548,0.707106781186548));
#837=DIRECTION('',(0.,0.,-1.));
#838=DIRECTION('',(0.,-1.,0.));
#839=DIRECTION('',(0.,0.,1.));
#840=DIRECTION('',(1.,0.,0.));
#841=DIRECTION('',(0.,1.,0.));
#842=DIRECTION('',(1.,0.,0.));
#843=DIRECTION('',(0.,1.,0.));
#844=DIRECTION('',(1.,0.,0.));
#845=DIRECTION('',(0.,1.,0.));
#846=DIRECTION('',(0.,0.,1.));
#847=DIRECTION('',(0.,0.,-1.));
#848=DIRECTION('',(0.,0.,-1.));
#849=DIRECTION('',(-1.,0.,0.));
#850=DIRECTION('',(0.,0.,1.));
#851=DIRECTION('',(0.,0.707106781186548,0.707106781186547));
#852=DIRECTION('',(0.,0.,-1.));
#853=DIRECTION('',(0.,1.,0.));
#854=DIRECTION('',(-1.,0.,0.));
#855=DIRECTION('',(0.,0.,1.));
#856=DIRECTION('',(0.,0.,-1.));
#857=DIRECTION('',(0.,-0.707106781186548,-0.707106781186547));
#858=DIRECTION('',(0.,1.,0.));
#859=DIRECTION('',(0.,0.,1.));
#860=DIRECTION('',(1.,0.,0.));
#861=DIRECTION('',(1.,0.,0.));
#862=DIRECTION('',(0.,-1.,0.));
#863=DIRECTION('',(1.,0.,0.));
#864=DIRECTION('',(0.,-1.,0.));
#865=DIRECTION('',(1.,0.,0.));
#866=DIRECTION('',(0.,0.,-1.));
#867=DIRECTION('',(0.,0.,-1.));
#868=DIRECTION('',(0.,0.,-1.));
#869=DIRECTION('',(0.,1.,0.));
#870=DIRECTION('',(0.,0.,1.));
#871=DIRECTION('',(0.707106781186549,0.,0.707106781186547));
#872=DIRECTION('',(0.,0.,-1.));
#873=DIRECTION('',(1.,0.,0.));
#874=DIRECTION('',(0.,1.,0.));
#875=DIRECTION('',(0.,0.,1.));
#876=DIRECTION('',(0.,0.,-1.));
#877=DIRECTION('',(-0.707106781186549,0.,-0.707106781186547));
#878=DIRECTION('',(1.,0.,0.));
#879=DIRECTION('',(0.,0.,1.));
#880=DIRECTION('',(1.,0.,0.));
#881=DIRECTION('',(1.,0.,0.));
#882=DIRECTION('',(0.,-1.,0.));
#883=DIRECTION('',(1.,0.,0.));
#884=DIRECTION('',(-1.,0.,0.));
#885=DIRECTION('',(0.,0.,1.));
#886=DIRECTION('',(1.,0.,0.));
#887=DIRECTION('',(0.,-1.,0.));
#888=DIRECTION('',(-1.,0.,0.));
#889=DIRECTION('',(0.,-1.,0.));
#890=DIRECTION('',(0.,1.,0.));
#891=DIRECTION('',(0.,0.,1.));
#892=DIRECTION('',(1.,0.,0.));
#893=DIRECTION('',(-1.,0.,0.));
#894=DIRECTION('',(0.,1.,0.));
#895=DIRECTION('',(-1.,0.,0.));
#896=DIRECTION('',(1.,0.,0.));
#897=DIRECTION('',(0.,-0.707106781186548,-0.707106781186548));
#898=DIRECTION('',(1.,0.,0.));
#899=DIRECTION('',(0.707106781186547,0.,-0.707106781186549));
#900=DIRECTION('',(0.,-1.,0.));
#901=DIRECTION('',(0.,0.707106781186547,-0.707106781186548));
#902=DIRECTION('',(1.,0.,0.));
#903=CARTESIAN_POINT('',(0.,0.,0.));
#904=CARTESIAN_POINT('',(-0.0180375441121095,0.0720966276825594,0.02032));
#905=CARTESIAN_POINT('',(-0.0180375441121095,0.0720966276825594,0.01397));
#906=CARTESIAN_POINT('',(-0.0180375441121096,0.0847966276825594,0.01397));
#907=CARTESIAN_POINT('',(-0.0180375441121096,0.0593966276825594,0.01397));
#908=CARTESIAN_POINT('',(-0.0180375441121096,0.0847966276825594,0.02032));
#909=CARTESIAN_POINT('',(-0.0180375441121096,0.0847966276825594,0.00508));
#910=CARTESIAN_POINT('',(-0.0180375441121095,0.0720966276825594,0.00508));
#911=CARTESIAN_POINT('',(-0.0180375441121096,0.0593966276825594,0.00508));
#912=CARTESIAN_POINT('',(-0.0180375441121096,0.0593966276825594,0.02032));
#913=CARTESIAN_POINT('',(0.13944245588789,-0.00918337231744064,0.02032));
#914=CARTESIAN_POINT('',(0.13944245588789,-0.00918337231744064,0.01397));
#915=CARTESIAN_POINT('',(0.12674245588789,-0.00918337231744064,0.01397));
#916=CARTESIAN_POINT('',(0.15214245588789,-0.00918337231744064,0.01397));
#917=CARTESIAN_POINT('',(0.12674245588789,-0.00918337231744064,0.02032));
#918=CARTESIAN_POINT('',(0.12674245588789,-0.00918337231744064,0.00508));
#919=CARTESIAN_POINT('',(0.13944245588789,-0.00918337231744064,0.00508));
#920=CARTESIAN_POINT('',(0.15214245588789,-0.00918337231744064,0.00508));
#921=CARTESIAN_POINT('',(0.15214245588789,-0.00918337231744064,0.02032));
#922=CARTESIAN_POINT('',(0.13944245588789,0.154646627682559,0.00508));
#923=CARTESIAN_POINT('',(0.29311245588789,0.154646627682559,0.00508));
#924=CARTESIAN_POINT('',(0.29311245588789,0.154646627682559,0.003556));
#925=CARTESIAN_POINT('',(0.29311245588789,0.154646627682559,0.002032));
#926=CARTESIAN_POINT('',(0.29311245588789,0.154646627682559,0.000508));
#927=CARTESIAN_POINT('',(0.29311245588789,0.154646627682559,0.00508));
#928=CARTESIAN_POINT('',(0.29311245588789,0.154646627682559,0.000508));
#929=CARTESIAN_POINT('',(0.29311245588789,0.154646627682559,0.000508000000000001));
#930=CARTESIAN_POINT('',(0.190665789221224,0.154646627682559,0.000508000000000001));
#931=CARTESIAN_POINT('',(0.0882191225545571,0.154646627682559,0.000508000000000001));
#932=CARTESIAN_POINT('',(-0.0142275441121096,0.154646627682559,0.000508000000000001));
#933=CARTESIAN_POINT('',(-0.0142275441121096,0.154646627682559,0.000508));
#934=CARTESIAN_POINT('',(-0.0142275441121096,0.154646627682559,0.000508));
#935=CARTESIAN_POINT('',(-0.0142275441121096,0.154646627682559,0.002032));
#936=CARTESIAN_POINT('',(-0.0142275441121096,0.154646627682559,0.003556));
#937=CARTESIAN_POINT('',(-0.0142275441121096,0.154646627682559,0.00508));
#938=CARTESIAN_POINT('',(-0.0142275441121096,0.154646627682559,0.00508));
#939=CARTESIAN_POINT('',(0.13944245588789,0.154646627682559,0.00508));
#940=CARTESIAN_POINT('',(-0.0193075441121096,0.0720966276825594,0.00508));
#941=CARTESIAN_POINT('',(-0.0193075441121096,0.149566627682559,0.00508));
#942=CARTESIAN_POINT('',(-0.0193075441121096,0.149566627682559,0.003556));
#943=CARTESIAN_POINT('',(-0.0193075441121096,0.149566627682559,0.002032));
#944=CARTESIAN_POINT('',(-0.0193075441121096,0.149566627682559,0.000508));
#945=CARTESIAN_POINT('',(-0.0193075441121096,0.149566627682559,0.00508));
#946=CARTESIAN_POINT('',(-0.0193075441121096,0.149566627682559,0.000508));
#947=CARTESIAN_POINT('',(-0.0193075441121096,0.149566627682559,0.000508000000000001));
#948=CARTESIAN_POINT('',(-0.0193075441121096,0.0979199610158927,0.000508000000000001));
#949=CARTESIAN_POINT('',(-0.0193075441121096,0.0462732943492261,0.000508000000000001));
#950=CARTESIAN_POINT('',(-0.0193075441121096,-0.00537337231744059,0.000508000000000001));
#951=CARTESIAN_POINT('',(-0.0193075441121096,-0.00537337231744064,0.000508));
#952=CARTESIAN_POINT('',(-0.0193075441121096,-0.00537337231744058,0.000508));
#953=CARTESIAN_POINT('',(-0.0193075441121096,-0.00537337231744058,0.002032));
#954=CARTESIAN_POINT('',(-0.0193075441121096,-0.00537337231744059,0.003556));
#955=CARTESIAN_POINT('',(-0.0193075441121096,-0.00537337231744059,0.00508));
#956=CARTESIAN_POINT('',(-0.0193075441121096,-0.00537337231744064,0.00508));
#957=CARTESIAN_POINT('',(-0.0193075441121096,0.0720966276825594,0.00508));
#958=CARTESIAN_POINT('',(0.13944245588789,-0.0104533723174406,0.00508));
#959=CARTESIAN_POINT('',(-0.0142275441121096,-0.0104533723174406,0.00508));
#960=CARTESIAN_POINT('',(-0.0142275441121096,-0.0104533723174406,0.003556));
#961=CARTESIAN_POINT('',(-0.0142275441121096,-0.0104533723174406,0.002032));
#962=CARTESIAN_POINT('',(-0.0142275441121096,-0.0104533723174406,0.000508));
#963=CARTESIAN_POINT('',(-0.0142275441121096,-0.0104533723174406,0.00508));
#964=CARTESIAN_POINT('',(-0.0142275441121096,-0.0104533723174406,0.000508));
#965=CARTESIAN_POINT('',(-0.0142275441121096,-0.0104533723174406,0.000508000000000001));
#966=CARTESIAN_POINT('',(0.0882191225545571,-0.0104533723174406,0.000508000000000001));
#967=CARTESIAN_POINT('',(0.190665789221224,-0.0104533723174406,0.000508000000000001));
#968=CARTESIAN_POINT('',(0.29311245588789,-0.0104533723174406,0.000508000000000001));
#969=CARTESIAN_POINT('',(0.29311245588789,-0.0104533723174406,0.000508));
#970=CARTESIAN_POINT('',(0.29311245588789,-0.0104533723174406,0.000508));
#971=CARTESIAN_POINT('',(0.29311245588789,-0.0104533723174406,0.002032));
#972=CARTESIAN_POINT('',(0.29311245588789,-0.0104533723174406,0.003556));
#973=CARTESIAN_POINT('',(0.29311245588789,-0.0104533723174406,0.00508));
#974=CARTESIAN_POINT('',(0.29311245588789,-0.0104533723174406,0.00508));
#975=CARTESIAN_POINT('',(0.13944245588789,-0.0104533723174406,0.00508));
#976=CARTESIAN_POINT('',(0.298192455887891,0.0720966276825594,0.00508));
#977=CARTESIAN_POINT('',(0.298192455887891,-0.00537337231744059,0.00508));
#978=CARTESIAN_POINT('',(0.298192455887891,-0.00537337231744059,0.003555999999935));
#979=CARTESIAN_POINT('',(0.298192455887891,-0.00537337231744059,0.00203199999987001));
#980=CARTESIAN_POINT('',(0.298192455887891,-0.00537337231744059,0.000507999999805009));
#981=CARTESIAN_POINT('',(0.298192455887891,-0.00537337231744064,0.00508));
#982=CARTESIAN_POINT('',(0.298192455887891,-0.00537337231744064,0.000507999999805009));
#983=CARTESIAN_POINT('',(0.298192455887891,-0.00537337231744059,0.000508000000000001));
#984=CARTESIAN_POINT('',(0.298192455887891,0.0462732943492261,0.000508000000000001));
#985=CARTESIAN_POINT('',(0.298192455887891,0.0979199610158927,0.000508000000000001));
#986=CARTESIAN_POINT('',(0.298192455887891,0.149566627682559,0.000508000000000001));
#987=CARTESIAN_POINT('',(0.298192455887891,0.149566627682559,0.000508));
#988=CARTESIAN_POINT('',(0.298192455887891,0.149566627682559,0.000508));
#989=CARTESIAN_POINT('',(0.298192455887891,0.149566627682559,0.002032));
#990=CARTESIAN_POINT('',(0.298192455887891,0.149566627682559,0.003556));
#991=CARTESIAN_POINT('',(0.298192455887891,0.149566627682559,0.00508));
#992=CARTESIAN_POINT('',(0.298192455887891,0.149566627682559,0.00508));
#993=CARTESIAN_POINT('',(0.298192455887891,0.0720966276825594,0.00508));
#994=CARTESIAN_POINT('',(0.13944245588789,0.0720966276825594,0.00508));
#995=CARTESIAN_POINT('',(0.13944245588789,0.149566627682559,0.00508));
#996=CARTESIAN_POINT('',(0.12674245588789,0.149566627682559,0.00508));
#997=CARTESIAN_POINT('',(0.15214245588789,0.149566627682559,0.00508));
#998=CARTESIAN_POINT('',(0.12674245588789,0.151471627682559,0.00508));
#999=CARTESIAN_POINT('',(0.12674245588789,0.153376627682559,0.00508));
#1000=CARTESIAN_POINT('',(0.13944245588789,0.153376627682559,0.00508));
#1001=CARTESIAN_POINT('',(0.15214245588789,0.153376627682559,0.00508));
#1002=CARTESIAN_POINT('',(0.15214245588789,0.151471627682559,0.00508));
#1003=CARTESIAN_POINT('',(0.12674245588789,-0.00727837231744064,0.00508));
#1004=CARTESIAN_POINT('',(0.12674245588789,-0.00537337231744064,0.00508));
#1005=CARTESIAN_POINT('',(0.13944245588789,-0.00537337231744064,0.00508));
#1006=CARTESIAN_POINT('',(0.15214245588789,-0.00537337231744064,0.00508));
#1007=CARTESIAN_POINT('',(0.15214245588789,-0.00727837231744064,0.00508));
#1008=CARTESIAN_POINT('',(-0.0161325441121096,0.0847966276825594,0.00508));
#1009=CARTESIAN_POINT('',(-0.0142275441121096,0.0847966276825594,0.00508));
#1010=CARTESIAN_POINT('',(-0.0142275441121096,0.0720966276825594,0.00508));
#1011=CARTESIAN_POINT('',(-0.0142275441121096,0.0593966276825594,0.00508));
#1012=CARTESIAN_POINT('',(-0.0161325441121096,0.0593966276825594,0.00508));
#1013=CARTESIAN_POINT('',(0.29311245588789,-0.0104533723174406,0.00508));
#1014=CARTESIAN_POINT('',(0.296499122554557,-0.0104533723174406,0.00508));
#1015=CARTESIAN_POINT('',(0.29819245588789,-0.00876003898410726,0.00508));
#1016=CARTESIAN_POINT('',(0.29819245588789,-0.00537337231744059,0.00508));
#1017=CARTESIAN_POINT('',(0.29819245588789,0.149566627682559,0.00508));
#1018=CARTESIAN_POINT('',(0.29819245588789,0.152953294349226,0.00508));
#1019=CARTESIAN_POINT('',(0.296499122554557,0.154646627682559,0.00508));
#1020=CARTESIAN_POINT('',(0.29311245588789,0.154646627682559,0.00508));
#1021=CARTESIAN_POINT('',(-0.0142275441121096,0.154646627682559,0.00508));
#1022=CARTESIAN_POINT('',(-0.0176142107787763,0.154646627682559,0.00508));
#1023=CARTESIAN_POINT('',(-0.0193075441121096,0.152953294349226,0.00508));
#1024=CARTESIAN_POINT('',(-0.0193075441121096,0.149566627682559,0.00508));
#1025=CARTESIAN_POINT('',(-0.0193075441121096,-0.00537337231744059,0.00508));
#1026=CARTESIAN_POINT('',(-0.0193075441121096,-0.00876003898410726,0.00508));
#1027=CARTESIAN_POINT('',(-0.0176142107787763,-0.0104533723174406,0.00508));
#1028=CARTESIAN_POINT('',(-0.0142275441121096,-0.0104533723174406,0.00508));
#1029=CARTESIAN_POINT('',(0.13944245588789,0.0720966276825594,0.));
#1030=CARTESIAN_POINT('',(0.29311245588789,0.154138627682559,0.));
#1031=CARTESIAN_POINT('',(0.29621905283966,0.154138627713773,0.));
#1032=CARTESIAN_POINT('',(0.297684455918836,0.152672242338605,0.));
#1033=CARTESIAN_POINT('',(0.29768445588789,0.149566627682559,0.));
#1034=CARTESIAN_POINT('',(0.29311245588789,0.154138627682559,0.));
#1035=CARTESIAN_POINT('',(0.29768445588789,0.149566627682559,0.));
#1036=CARTESIAN_POINT('',(0.29768445588789,0.149566627682559,0.));
#1037=CARTESIAN_POINT('',(0.29768445588789,0.0979199610158927,0.));
#1038=CARTESIAN_POINT('',(0.29768445588789,0.0462732943492261,0.));
#1039=CARTESIAN_POINT('',(0.29768445588789,-0.00537337231744059,0.));
#1040=CARTESIAN_POINT('',(0.29768445588789,-0.00537337231744064,0.));
#1041=CARTESIAN_POINT('',(0.29768445588789,-0.00537337231744059,0.));
#1042=CARTESIAN_POINT('',(0.297684455918845,-0.00847996926920712,0.));
#1043=CARTESIAN_POINT('',(0.296218070544556,-0.00994537234802754,0.));
#1044=CARTESIAN_POINT('',(0.29311245588789,-0.0099453723174406,0.));
#1045=CARTESIAN_POINT('',(0.29311245588789,-0.00994537231744065,0.));
#1046=CARTESIAN_POINT('',(0.29311245588789,-0.0099453723174406,0.));
#1047=CARTESIAN_POINT('',(0.190665789221224,-0.0099453723174406,0.));
#1048=CARTESIAN_POINT('',(0.0882191225545571,-0.0099453723174406,0.));
#1049=CARTESIAN_POINT('',(-0.0142275441121096,-0.0099453723174406,0.));
#1050=CARTESIAN_POINT('',(-0.0142275441121096,-0.00994537231744064,0.));
#1051=CARTESIAN_POINT('',(-0.0142275441121096,-0.0099453723174406,0.));
#1052=CARTESIAN_POINT('',(-0.0173341410636429,-0.00994537234872966,0.));
#1053=CARTESIAN_POINT('',(-0.0187995441426936,-0.00847898697400779,0.));
#1054=CARTESIAN_POINT('',(-0.0187995441121096,-0.00537337231744059,0.));
#1055=CARTESIAN_POINT('',(-0.0187995441121095,-0.00537337231744064,0.));
#1056=CARTESIAN_POINT('',(-0.0187995441121096,-0.00537337231744059,0.));
#1057=CARTESIAN_POINT('',(-0.0187995441121096,0.0462732943492261,0.));
#1058=CARTESIAN_POINT('',(-0.0187995441121096,0.0979199610158927,0.));
#1059=CARTESIAN_POINT('',(-0.0187995441121096,0.149566627682559,0.));
#1060=CARTESIAN_POINT('',(-0.0187995441121095,0.149566627682559,0.));
#1061=CARTESIAN_POINT('',(-0.0187995441121096,0.149566627682559,0.));
#1062=CARTESIAN_POINT('',(-0.0187995441433876,0.152673224634144,0.));
#1063=CARTESIAN_POINT('',(-0.0173331587687063,0.154138627713074,0.));
#1064=CARTESIAN_POINT('',(-0.0142275441121096,0.154138627682559,0.));
#1065=CARTESIAN_POINT('',(-0.0142275441121096,0.154138627682559,0.));
#1066=CARTESIAN_POINT('',(-0.0142275441121096,0.154138627682559,0.));
#1067=CARTESIAN_POINT('',(0.0882191225545571,0.154138627682559,0.));
#1068=CARTESIAN_POINT('',(0.190665789221224,0.154138627682559,0.));
#1069=CARTESIAN_POINT('',(0.29311245588789,0.154138627682559,0.));
#1070=CARTESIAN_POINT('',(0.13944245588789,0.0720966276825594,0.02032));
#1071=CARTESIAN_POINT('',(0.15214245588789,0.151471627682559,0.02032));
#1072=CARTESIAN_POINT('',(0.15214245588789,0.149566627682559,0.02032));
#1073=CARTESIAN_POINT('',(0.15214245588789,0.150836627682559,0.02032));
#1074=CARTESIAN_POINT('',(0.13944245588789,0.150836627682559,0.02032));
#1075=CARTESIAN_POINT('',(0.12674245588789,0.150836627682559,0.02032));
#1076=CARTESIAN_POINT('',(0.12674245588789,0.151471627682559,0.02032));
#1077=CARTESIAN_POINT('',(0.12674245588789,0.149566627682559,0.02032));
#1078=CARTESIAN_POINT('',(0.13944245588789,0.149566627682559,0.02032));
#1079=CARTESIAN_POINT('',(0.13944245588789,0.153376627682559,0.02032));
#1080=CARTESIAN_POINT('',(0.13944245588789,0.153376627682559,0.01397));
#1081=CARTESIAN_POINT('',(0.15214245588789,0.153376627682559,0.01397));
#1082=CARTESIAN_POINT('',(0.12674245588789,0.153376627682559,0.01397));
#1083=CARTESIAN_POINT('',(0.15214245588789,0.153376627682559,0.02032));
#1084=CARTESIAN_POINT('',(0.12674245588789,0.153376627682559,0.02032));
#1085=CARTESIAN_POINT('',(0.15214245588789,0.151471627682559,0.02032));
#1086=CARTESIAN_POINT('',(0.15214245588789,0.155916627682559,0.02032));
#1087=CARTESIAN_POINT('',(0.15214245588789,0.155916627682559,0.01524));
#1088=CARTESIAN_POINT('',(0.15214245588789,0.155916627682559,0.01397));
#1089=CARTESIAN_POINT('',(0.15214245588789,0.155916627682559,0.01524));
#1090=CARTESIAN_POINT('',(0.15214245588789,0.149566627682559,0.02032));
#1091=CARTESIAN_POINT('',(0.15214245588789,0.155916627682559,0.01397));
#1092=CARTESIAN_POINT('',(0.13944245588789,0.149566627682559,0.02032));
#1093=CARTESIAN_POINT('',(0.12674245588789,0.149566627682559,0.02032));
#1094=CARTESIAN_POINT('',(0.12674245588789,0.151471627682559,0.02032));
#1095=CARTESIAN_POINT('',(0.12674245588789,0.151154127682559,0.0200025));
#1096=CARTESIAN_POINT('',(0.12674245588789,0.155916627682559,0.01524));
#1097=CARTESIAN_POINT('',(0.12674245588789,0.155916627682559,0.02032));
#1098=CARTESIAN_POINT('',(0.12674245588789,0.155916627682559,0.01397));
#1099=CARTESIAN_POINT('',(0.12674245588789,0.155916627682559,0.01397));
#1100=CARTESIAN_POINT('',(0.13944245588789,0.0720966276825594,0.02032));
#1101=CARTESIAN_POINT('',(0.12674245588789,-0.00727837231744064,0.02032));
#1102=CARTESIAN_POINT('',(0.12674245588789,-0.00664337231744064,0.02032));
#1103=CARTESIAN_POINT('',(0.12674245588789,-0.00537337231744064,0.02032));
#1104=CARTESIAN_POINT('',(0.13944245588789,-0.00664337231744064,0.02032));
#1105=CARTESIAN_POINT('',(0.15214245588789,-0.00664337231744064,0.02032));
#1106=CARTESIAN_POINT('',(0.15214245588789,-0.00727837231744064,0.02032));
#1107=CARTESIAN_POINT('',(0.15214245588789,-0.00537337231744064,0.02032));
#1108=CARTESIAN_POINT('',(0.13944245588789,-0.00537337231744064,0.02032));
#1109=CARTESIAN_POINT('',(0.13944245588789,-0.00537337231744064,0.02032));
#1110=CARTESIAN_POINT('',(0.15214245588789,-0.00537337231744064,0.02032));
#1111=CARTESIAN_POINT('',(0.12674245588789,-0.00537337231744064,0.02032));
#1112=CARTESIAN_POINT('',(0.15214245588789,-0.00727837231744064,0.02032));
#1113=CARTESIAN_POINT('',(0.15214245588789,-0.00664337231744064,0.02032));
#1114=CARTESIAN_POINT('',(0.15214245588789,-0.0117233723174406,0.01524));
#1115=CARTESIAN_POINT('',(0.15214245588789,-0.0117233723174406,0.02032));
#1116=CARTESIAN_POINT('',(0.15214245588789,-0.0117233723174406,0.01397));
#1117=CARTESIAN_POINT('',(0.15214245588789,-0.0117233723174406,0.01397));
#1118=CARTESIAN_POINT('',(0.12674245588789,-0.00727837231744064,0.02032));
#1119=CARTESIAN_POINT('',(0.12674245588789,-0.0117233723174406,0.02032));
#1120=CARTESIAN_POINT('',(0.12674245588789,-0.0117233723174406,0.01524));
#1121=CARTESIAN_POINT('',(0.12674245588789,-0.0117233723174406,0.01397));
#1122=CARTESIAN_POINT('',(0.12674245588789,-0.00696087231744064,0.0200025));
#1123=CARTESIAN_POINT('',(0.12674245588789,-0.0117233723174406,0.01397));
#1124=CARTESIAN_POINT('',(0.13944245588789,0.0720966276825594,0.02032));
#1125=CARTESIAN_POINT('',(-0.0161325441121096,0.0847966276825594,0.02032));
#1126=CARTESIAN_POINT('',(-0.0154975441121095,0.0847966276825594,0.02032));
#1127=CARTESIAN_POINT('',(-0.0142275441121096,0.0847966276825594,0.02032));
#1128=CARTESIAN_POINT('',(-0.0154975441121095,0.0720966276825594,0.02032));
#1129=CARTESIAN_POINT('',(-0.0154975441121095,0.0593966276825594,0.02032));
#1130=CARTESIAN_POINT('',(-0.0161325441121096,0.0593966276825594,0.02032));
#1131=CARTESIAN_POINT('',(-0.0142275441121096,0.0593966276825594,0.02032));
#1132=CARTESIAN_POINT('',(-0.0142275441121096,0.0720966276825594,0.02032));
#1133=CARTESIAN_POINT('',(-0.0142275441121096,0.0720966276825594,0.02032));
#1134=CARTESIAN_POINT('',(-0.0142275441121096,0.0593966276825594,0.02032));
#1135=CARTESIAN_POINT('',(-0.0142275441121096,0.0847966276825594,0.02032));
#1136=CARTESIAN_POINT('',(-0.0161325441121096,0.0593966276825594,0.02032));
#1137=CARTESIAN_POINT('',(-0.0154975441121095,0.0593966276825594,0.02032));
#1138=CARTESIAN_POINT('',(-0.0205775441121096,0.0593966276825594,0.01524));
#1139=CARTESIAN_POINT('',(-0.0205775441121096,0.0593966276825594,0.02032));
#1140=CARTESIAN_POINT('',(-0.0205775441121096,0.0593966276825594,0.01397));
#1141=CARTESIAN_POINT('',(-0.0205775441121096,0.0593966276825594,0.01397));
#1142=CARTESIAN_POINT('',(-0.0161325441121096,0.0847966276825594,0.02032));
#1143=CARTESIAN_POINT('',(-0.0205775441121096,0.0847966276825594,0.02032));
#1144=CARTESIAN_POINT('',(-0.0205775441121096,0.0847966276825594,0.01524));
#1145=CARTESIAN_POINT('',(-0.0205775441121096,0.0847966276825594,0.01397));
#1146=CARTESIAN_POINT('',(-0.0158150441121095,0.0847966276825594,0.0200025));
#1147=CARTESIAN_POINT('',(-0.0205775441121096,0.0847966276825594,0.01397));
#1148=CARTESIAN_POINT('',(0.13944245588789,-0.0117233723174406,0.01397));
#1149=CARTESIAN_POINT('',(0.13944245588789,-0.0117233723174406,0.01397));
#1150=CARTESIAN_POINT('',(0.13944245588789,-0.0117233723174406,0.0127));
#1151=CARTESIAN_POINT('',(0.13944245588789,-0.0117233723174406,0.01524));
#1152=CARTESIAN_POINT('',(-0.0205775441121095,0.0720966276825594,0.01397));
#1153=CARTESIAN_POINT('',(-0.0205775441121095,0.0720966276825594,0.01397));
#1154=CARTESIAN_POINT('',(-0.0205775441121095,0.0720966276825594,0.0127));
#1155=CARTESIAN_POINT('',(-0.0205775441121095,0.0720966276825594,0.01524));
#1156=CARTESIAN_POINT('',(0.13944245588789,0.155916627682559,0.01397));
#1157=CARTESIAN_POINT('',(0.13944245588789,0.155916627682559,0.01397));
#1158=CARTESIAN_POINT('',(0.13944245588789,0.155916627682559,0.0127));
#1159=CARTESIAN_POINT('',(0.13944245588789,0.155916627682559,0.01524));
#1160=CARTESIAN_POINT('',(0.13944245588789,0.155916627682559,0.01524));
#1161=CARTESIAN_POINT('',(-0.0154975441121095,0.0720966276825594,0.02032));
#1162=CARTESIAN_POINT('',(0.13944245588789,-0.00664337231744064,0.02032));
#1163=CARTESIAN_POINT('',(0.29311245588789,-0.0104533723174406,0.000507999999805009));
#1164=CARTESIAN_POINT('',(0.29311245588789,-0.0104533723174406,0.00508));
#1165=CARTESIAN_POINT('',(0.296499122554557,-0.0104533723174407,0.000507999999805013));
#1166=CARTESIAN_POINT('',(0.296499122554557,-0.0104533723174407,0.00508));
#1167=CARTESIAN_POINT('',(0.29819245588789,-0.00876003898410733,0.000507999999805008));
#1168=CARTESIAN_POINT('',(0.29819245588789,-0.00876003898410733,0.00508));
#1169=CARTESIAN_POINT('',(0.29819245588789,-0.00537337231744059,0.000507999999805009));
#1170=CARTESIAN_POINT('',(0.29819245588789,-0.00537337231744059,0.00508));
#1171=CARTESIAN_POINT('',(0.293112455887891,-0.0104533723174406,0.000508));
#1172=CARTESIAN_POINT('',(0.296499122554557,-0.0104533723174406,0.000508000000000005));
#1173=CARTESIAN_POINT('',(0.29819245588789,-0.00876003898410729,0.000508000000000003));
#1174=CARTESIAN_POINT('',(0.29819245588789,-0.00537337231744065,0.000508000000000005));
#1175=CARTESIAN_POINT('',(-0.0142275441121096,-0.0104533723174406,0.00508));
#1176=CARTESIAN_POINT('',(-0.0142275441121096,-0.0104533723174406,0.000508));
#1177=CARTESIAN_POINT('',(-0.0176142107787763,-0.0104533723174406,0.00508));
#1178=CARTESIAN_POINT('',(-0.0176142107787763,-0.0104533723174406,0.000508));
#1179=CARTESIAN_POINT('',(-0.0193075441121096,-0.00876003898410728,0.00508));
#1180=CARTESIAN_POINT('',(-0.0193075441121096,-0.00876003898410728,0.000508000000000004));
#1181=CARTESIAN_POINT('',(-0.0193075441121096,-0.00537337231744059,0.00508));
#1182=CARTESIAN_POINT('',(-0.0193075441121096,-0.00537337231744059,0.000507999999999999));
#1183=CARTESIAN_POINT('',(-0.0193075441121096,-0.00537337231744064,0.000508));
#1184=CARTESIAN_POINT('',(-0.0193075441121096,-0.0087600389841073,0.000508000000000004));
#1185=CARTESIAN_POINT('',(-0.0176142107787763,-0.0104533723174406,0.000508));
#1186=CARTESIAN_POINT('',(-0.0142275441121096,-0.0104533723174406,0.000508));
#1187=CARTESIAN_POINT('',(0.29311245588789,0.15464662768256,0.00508));
#1188=CARTESIAN_POINT('',(0.29311245588789,0.15464662768256,0.000508));
#1189=CARTESIAN_POINT('',(0.296499122554557,0.15464662768256,0.00508));
#1190=CARTESIAN_POINT('',(0.296499122554557,0.15464662768256,0.000508));
#1191=CARTESIAN_POINT('',(0.298192455887891,0.152953294349226,0.00508));
#1192=CARTESIAN_POINT('',(0.298192455887891,0.152953294349226,0.000508000000000002));
#1193=CARTESIAN_POINT('',(0.298192455887891,0.149566627682559,0.00508));
#1194=CARTESIAN_POINT('',(0.298192455887891,0.149566627682559,0.000507999999999997));
#1195=CARTESIAN_POINT('',(0.298192455887891,0.149566627682559,0.000508));
#1196=CARTESIAN_POINT('',(0.298192455887891,0.152953294349226,0.000508000000000004));
#1197=CARTESIAN_POINT('',(0.296499122554557,0.154646627682559,0.000508000000000001));
#1198=CARTESIAN_POINT('',(0.29311245588789,0.15464662768256,0.000508));
#1199=CARTESIAN_POINT('',(-0.0142275441121096,0.154646627682559,0.000507999999999999));
#1200=CARTESIAN_POINT('',(-0.0142275441121096,0.154646627682559,0.00508));
#1201=CARTESIAN_POINT('',(-0.0176142107787762,0.154646627682559,0.000508000000000002));
#1202=CARTESIAN_POINT('',(-0.0176142107787762,0.154646627682559,0.00508000000000001));
#1203=CARTESIAN_POINT('',(-0.0193075441121095,0.152953294349226,0.000508000000000002));
#1204=CARTESIAN_POINT('',(-0.0193075441121095,0.152953294349226,0.00508000000000001));
#1205=CARTESIAN_POINT('',(-0.0193075441121096,0.149566627682559,0.000508));
#1206=CARTESIAN_POINT('',(-0.0193075441121096,0.149566627682559,0.00508));
#1207=CARTESIAN_POINT('',(-0.0142275441121096,0.154646627682559,0.000508));
#1208=CARTESIAN_POINT('',(-0.0176142107787762,0.154646627682559,0.000508000000000002));
#1209=CARTESIAN_POINT('',(-0.0193075441121095,0.152953294349226,0.000508000000000002));
#1210=CARTESIAN_POINT('',(-0.0193075441121096,0.149566627682559,0.000508));
#1211=CARTESIAN_POINT('',(-0.0193075441121095,0.149566627682559,0.000508000000000001));
#1212=CARTESIAN_POINT('',(-0.0193075441121095,-0.00537337231744064,0.000508000000000001));
#1213=CARTESIAN_POINT('',(-0.0193075441121095,0.149566627682559,0.000169333333337532));
#1214=CARTESIAN_POINT('',(-0.0193075441121095,-0.00537337231744059,0.000169333333337532));
#1215=CARTESIAN_POINT('',(-0.0191382107787762,0.149566627682559,4.19900527340543E-15));
#1216=CARTESIAN_POINT('',(-0.0191382107787762,-0.00537337231744059,4.19900527340543E-15));
#1217=CARTESIAN_POINT('',(-0.0187995441121095,0.149566627682559,-3.22796555906203E-19));
#1218=CARTESIAN_POINT('',(-0.0187995441121095,-0.00537337231744064,-3.22796555906203E-19));
#1219=CARTESIAN_POINT('',(-0.0187995441121096,-0.00537337231744064,-3.22950561450443E-19));
#1220=CARTESIAN_POINT('',(-0.0191382107787762,-0.00537337231744065,4.21694115166546E-15));
#1221=CARTESIAN_POINT('',(-0.0193075441121095,-0.00537337231744061,0.00016933333333755));
#1222=CARTESIAN_POINT('',(-0.0193075441121095,-0.00537337231744064,0.000508));
#1223=CARTESIAN_POINT('',(-0.0193075441121095,0.149566627682559,0.000508));
#1224=CARTESIAN_POINT('',(-0.0193075441121095,0.149566627682559,0.000169333333337532));
#1225=CARTESIAN_POINT('',(-0.0191382107787762,0.149566627682559,4.19900527340543E-15));
#1226=CARTESIAN_POINT('',(-0.0187995441121095,0.149566627682559,-3.22796555906203E-19));
#1227=CARTESIAN_POINT('',(-0.0142275441121096,0.154646627682559,0.000508));
#1228=CARTESIAN_POINT('',(-0.0148827773292818,0.154646627682559,0.000507999999999226));
#1229=CARTESIAN_POINT('',(-0.0155397500804444,0.154589606523946,0.000508000000000846));
#1230=CARTESIAN_POINT('',(-0.0165323105775165,0.154312815135284,0.00050799999999958));
#1231=CARTESIAN_POINT('',(-0.0168610408185494,0.154187208461975,0.000507999999999869));
#1232=CARTESIAN_POINT('',(-0.0174838560043181,0.153849335624787,0.000508000000000138));
#1233=CARTESIAN_POINT('',(-0.0177822693142905,0.153631693323243,0.000508000000000251));
#1234=CARTESIAN_POINT('',(-0.0182907322379769,0.153123647857054,0.00050799999999975));
#1235=CARTESIAN_POINT('',(-0.0185078312718382,0.152826673749289,0.000507999999999847));
#1236=CARTESIAN_POINT('',(-0.0188467600151267,0.152203360384458,0.00050800000000015));
#1237=CARTESIAN_POINT('',(-0.018971120217596,0.151879016781856,0.000508000000000169));
#1238=CARTESIAN_POINT('',(-0.0192498482592237,0.150884681330592,0.000507999999999661));
#1239=CARTESIAN_POINT('',(-0.0193075441121096,0.150220371214301,0.000507999999999092));
#1240=CARTESIAN_POINT('',(-0.0193075441121096,0.149566627682559,0.000508));
#1241=CARTESIAN_POINT('',(-0.0142275441121096,0.154646627682559,2.49366499671666E-18));
#1242=CARTESIAN_POINT('',(-0.014882777326751,0.154646627689738,1.01482118254337E-15));
#1243=CARTESIAN_POINT('',(-0.0155397500837739,0.154589606535885,1.58863311883675E-15));
#1244=CARTESIAN_POINT('',(-0.0165323105758517,0.154312815129314,-7.91389213552667E-16));
#1245=CARTESIAN_POINT('',(-0.0168610408216543,0.154187208467698,-4.15424902260479E-16));
#1246=CARTESIAN_POINT('',(-0.0174838560012133,0.153849335619063,4.25182721812848E-16));
#1247=CARTESIAN_POINT('',(-0.0177822693140364,0.153631693322988,1.15464943868222E-16));
#1248=CARTESIAN_POINT('',(-0.018290732238231,0.153123647857309,-1.18717550385678E-16));
#1249=CARTESIAN_POINT('',(-0.0185078312655398,0.152826673745864,2.34894999531674E-16));
#1250=CARTESIAN_POINT('',(-0.018846760021425,0.152203360387883,-2.36412882573153E-16));
#1251=CARTESIAN_POINT('',(-0.0189711202134643,0.151879016780698,-7.58941520739853E-19));
#1252=CARTESIAN_POINT('',(-0.0192498482674869,0.150884681332908,-7.58941520739853E-19));
#1253=CARTESIAN_POINT('',(-0.0193075441194291,0.150220371212536,-1.91796514604051E-15));
#1254=CARTESIAN_POINT('',(-0.0193075441121096,0.149566627682559,1.0842021724855E-18));
#1255=CARTESIAN_POINT('',(-0.0142275441121096,0.154138627682559,2.49366499671666E-18));
#1256=CARTESIAN_POINT('',(-0.0148498467830586,0.154138627688674,2.49366499671666E-18));
#1257=CARTESIAN_POINT('',(-0.015465140473699,0.154083029767717,1.95156391047391E-18));
#1258=CARTESIAN_POINT('',(-0.0163649293197959,0.153832109224324,1.95156391047391E-18));
#1259=CARTESIAN_POINT('',(-0.0166576113977444,0.153719629890539,4.87890977618477E-18));
#1260=CARTESIAN_POINT('',(-0.0172028113351857,0.153423862766471,4.87890977618477E-18));
#1261=CARTESIAN_POINT('',(-0.0174591603663512,0.15323641136033,-1.62630325872825E-18));
#1262=CARTESIAN_POINT('',(-0.0178957157961832,0.152800214351494,-1.62630325872825E-18));
#1263=CARTESIAN_POINT('',(-0.0180826784585935,0.152545129947532,-7.58941520739853E-19));
#1264=CARTESIAN_POINT('',(-0.0183793333716738,0.15199956109779,-7.58941520739853E-19));
#1265=CARTESIAN_POINT('',(-0.0184906783384308,0.151710851869854,-7.58941520739853E-19));
#1266=CARTESIAN_POINT('',(-0.0187432952776519,0.150809665297214,-7.58941520739853E-19));
#1267=CARTESIAN_POINT('',(-0.0187995441183617,0.150187597679975,1.0842021724855E-18));
#1268=CARTESIAN_POINT('',(-0.0187995441121095,0.149566627682559,1.0842021724855E-18));
#1269=CARTESIAN_POINT('',(-0.0142275441121096,0.15413862768256,-1.23204792323768E-21));
#1270=CARTESIAN_POINT('',(-0.0142275441121095,0.154477294349226,3.05082933742264E-18));
#1271=CARTESIAN_POINT('',(-0.0142275441121096,0.154646627682559,0.000169333333333337));
#1272=CARTESIAN_POINT('',(-0.0142275441121096,0.154646627682559,0.000508));
#1273=CARTESIAN_POINT('',(-0.0193075441121096,-0.00537337231744064,0.000508));
#1274=CARTESIAN_POINT('',(-0.0193075441121096,-0.00602860553461516,0.000508));
#1275=CARTESIAN_POINT('',(-0.0192505229534967,-0.00668557828577245,0.000508));
#1276=CARTESIAN_POINT('',(-0.018973731564834,-0.0076781387828491,0.000508));
#1277=CARTESIAN_POINT('',(-0.0188481248915233,-0.00800686902388382,0.000507999999999983));
#1278=CARTESIAN_POINT('',(-0.0185102520543386,-0.00862968420964601,0.000508000000000017));
#1279=CARTESIAN_POINT('',(-0.0182926097527954,-0.00892809751961907,0.0005080000000001));
#1280=CARTESIAN_POINT('',(-0.0177845642866014,-0.00943656044331051,0.000507999999999899));
#1281=CARTESIAN_POINT('',(-0.0174875901788378,-0.00965365947717003,0.000508000000000017));
#1282=CARTESIAN_POINT('',(-0.0168642768140094,-0.00999258822045699,0.000507999999999983));
#1283=CARTESIAN_POINT('',(-0.0165399332113964,-0.0101169484229297,0.000507999999999899));
#1284=CARTESIAN_POINT('',(-0.0155455977601611,-0.0103956764645495,0.000508000000000204));
#1285=CARTESIAN_POINT('',(-0.014881287643837,-0.0104533723174406,0.000507999999999966));
#1286=CARTESIAN_POINT('',(-0.0142275441121096,-0.0104533723174406,0.000508));
#1287=CARTESIAN_POINT('',(-0.0193075441121096,-0.00537337231744064,0.));
#1288=CARTESIAN_POINT('',(-0.0193075441193023,-0.0060286055320839,-9.11094765808376E-16));
#1289=CARTESIAN_POINT('',(-0.0192505229654373,-0.00668557828910256,6.67594225186767E-17));
#1290=CARTESIAN_POINT('',(-0.0189737315588637,-0.00767813878118405,-3.45181235404481E-17));
#1291=CARTESIAN_POINT('',(-0.0188481248972381,-0.00800686902698407,-5.17375000513824E-17));
#1292=CARTESIAN_POINT('',(-0.0185102520486239,-0.00862968420654576,4.91354148374172E-17));
#1293=CARTESIAN_POINT('',(-0.0182926097525455,-0.0089280975193693,1.50112208294228E-16));
#1294=CARTESIAN_POINT('',(-0.0177845642868514,-0.00943656044356029,-1.50979570032216E-16));
#1295=CARTESIAN_POINT('',(-0.0174875901754138,-0.00965365947087304,1.65071637091412E-17));
#1296=CARTESIAN_POINT('',(-0.0168642768174334,-0.00999258822675399,-1.71576850126325E-17));
#1297=CARTESIAN_POINT('',(-0.0165399332102379,-0.0101169484187968,-2.36119847878578E-16));
#1298=CARTESIAN_POINT('',(-0.0155455977624781,-0.0103956764728153,4.74191259667632E-16));
#1299=CARTESIAN_POINT('',(-0.0148812876420714,-0.0104533723247635,-3.36675324226457E-17));
#1300=CARTESIAN_POINT('',(-0.0142275441121096,-0.0104533723174406,0.));
#1301=CARTESIAN_POINT('',(-0.0187995441121096,-0.00537337231744064,0.));
#1302=CARTESIAN_POINT('',(-0.018799544118238,-0.0059956749883907,0.));
#1303=CARTESIAN_POINT('',(-0.0187439461972684,-0.00661096867902874,-5.42101086242752E-19));
#1304=CARTESIAN_POINT('',(-0.0184930256538735,-0.00751075752512766,-5.42101086242752E-19));
#1305=CARTESIAN_POINT('',(-0.0183805463200786,-0.00780343960307435,-1.3010426069826E-18));
#1306=CARTESIAN_POINT('',(-0.0180847791960329,-0.00834863954051785,-1.3010426069826E-18));
#1307=CARTESIAN_POINT('',(-0.0178973277898903,-0.00860498857168316,-4.33680868994202E-19));
#1308=CARTESIAN_POINT('',(-0.0174611307810346,-0.00904154400151344,-4.33680868994202E-19));
#1309=CARTESIAN_POINT('',(-0.017206046377085,-0.00922850666392569,-3.25260651745652E-19));
#1310=CARTESIAN_POINT('',(-0.0166604775273375,-0.00952516157700387,-3.25260651745652E-19));
#1311=CARTESIAN_POINT('',(-0.0163717682993961,-0.00963650654376324,6.50521303491303E-19));
#1312=CARTESIAN_POINT('',(-0.0154705817267796,-0.00988912348298022,6.50521303491303E-19));
#1313=CARTESIAN_POINT('',(-0.0148485141095137,-0.00994537232369493,0.));
#1314=CARTESIAN_POINT('',(-0.0142275441121096,-0.00994537231744064,0.));
#1315=CARTESIAN_POINT('',(-0.0142275441121096,-0.0104533723174406,0.000508));
#1316=CARTESIAN_POINT('',(-0.0142275441121095,-0.0104533723174406,0.000169333333333332));
#1317=CARTESIAN_POINT('',(-0.0142275441121095,-0.0102840389841073,-1.56721040948012E-18));
#1318=CARTESIAN_POINT('',(-0.0142275441121096,-0.00994537231744064,-3.27262729620973E-19));
#1319=CARTESIAN_POINT('',(0.293112455887891,0.15464662768256,0.000508000000000001));
#1320=CARTESIAN_POINT('',(-0.0142275441121096,0.15464662768256,0.000508000000000001));
#1321=CARTESIAN_POINT('',(0.293112455887891,0.154646627682559,0.000169333333333306));
#1322=CARTESIAN_POINT('',(-0.0142275441121096,0.154646627682559,0.000169333333333306));
#1323=CARTESIAN_POINT('',(0.293112455887891,0.154477294349226,-2.79732417784994E-17));
#1324=CARTESIAN_POINT('',(-0.0142275441121096,0.154477294349226,-2.79732417784994E-17));
#1325=CARTESIAN_POINT('',(0.29311245588789,0.154138627682559,-1.69406589104412E-21));
#1326=CARTESIAN_POINT('',(-0.0142275441121097,0.154138627682559,-1.69406589104412E-21));
#1327=CARTESIAN_POINT('',(0.29311245588789,0.154646627682559,0.000508));
#1328=CARTESIAN_POINT('',(0.29311245588789,0.154646627682559,0.00016933333333332));
#1329=CARTESIAN_POINT('',(0.293112455887891,0.154477294349226,-1.33876688670114E-17));
#1330=CARTESIAN_POINT('',(0.29311245588789,0.154138627682559,-2.04057937213779E-21));
#1331=CARTESIAN_POINT('',(-0.0142275441121096,-0.0104533723174406,0.000508000000000001));
#1332=CARTESIAN_POINT('',(0.29311245588789,-0.0104533723174406,0.000508000000000001));
#1333=CARTESIAN_POINT('',(-0.0142275441121096,-0.0104533723174406,0.000169333333333317));
#1334=CARTESIAN_POINT('',(0.29311245588789,-0.0104533723174406,0.000169333333333317));
#1335=CARTESIAN_POINT('',(-0.0142275441121096,-0.0102840389841073,-1.63807784610972E-17));
#1336=CARTESIAN_POINT('',(0.29311245588789,-0.0102840389841073,-1.63807784610972E-17));
#1337=CARTESIAN_POINT('',(-0.0142275441121096,-0.0099453723174406,-3.27185726624636E-19));
#1338=CARTESIAN_POINT('',(0.29311245588789,-0.0099453723174406,-3.27185726624636E-19));
#1339=CARTESIAN_POINT('',(0.29311245588789,-0.00994537231744065,-3.27185726625748E-19));
#1340=CARTESIAN_POINT('',(0.293112455887891,-0.0102840389841073,2.11831138567654E-18));
#1341=CARTESIAN_POINT('',(0.293112455887891,-0.0104533723174406,0.000169333333333335));
#1342=CARTESIAN_POINT('',(0.29311245588789,-0.0104533723174406,0.000508));
#1343=CARTESIAN_POINT('',(0.298192455887891,0.149566627682559,0.000508));
#1344=CARTESIAN_POINT('',(0.298192455887891,0.150221860899734,0.000508));
#1345=CARTESIAN_POINT('',(0.298135434729278,0.15087883365089,0.000508));
#1346=CARTESIAN_POINT('',(0.297858643340615,0.151871394147968,0.000508));
#1347=CARTESIAN_POINT('',(0.297733036667301,0.152200124389008,0.000508));
#1348=CARTESIAN_POINT('',(0.297395163830123,0.15282293957476,0.000508));
#1349=CARTESIAN_POINT('',(0.297177521528571,0.153121352884743,0.000507999999999899));
#1350=CARTESIAN_POINT('',(0.296669476062388,0.153629815808424,0.0005080000000001));
#1351=CARTESIAN_POINT('',(0.29637250195461,0.153846914842294,0.000508000000000122));
#1352=CARTESIAN_POINT('',(0.295749188589799,0.154185843585571,0.000507999999999886));
#1353=CARTESIAN_POINT('',(0.295424844987196,0.154310203788043,0.000507999999999631));
#1354=CARTESIAN_POINT('',(0.294430509535906,0.154588931829679,0.000508000000000747));
#1355=CARTESIAN_POINT('',(0.293766199419645,0.154646627682559,0.000508000000006161));
#1356=CARTESIAN_POINT('',(0.29311245588789,0.154646627682559,0.000508));
#1357=CARTESIAN_POINT('',(0.298192455887891,0.149566627682559,0.));
#1358=CARTESIAN_POINT('',(0.298192455895147,0.150221860897204,0.));
#1359=CARTESIAN_POINT('',(0.298135434741216,0.15087883365422,-4.59352557924253E-15));
#1360=CARTESIAN_POINT('',(0.297858643334645,0.151871394146303,2.29334755277794E-15));
#1361=CARTESIAN_POINT('',(0.29773303667302,0.152200124392111,3.5468220725032E-15));
#1362=CARTESIAN_POINT('',(0.297395163824403,0.152822939571656,-3.54790627467569E-15));
#1363=CARTESIAN_POINT('',(0.297177521528319,0.153121352884492,-1.678153112676E-16));
#1364=CARTESIAN_POINT('',(0.29666947606264,0.153629815808675,1.66731109095114E-16));
#1365=CARTESIAN_POINT('',(0.296372501951183,0.153846914835991,1.67023201001884E-16));
#1366=CARTESIAN_POINT('',(0.295749188593227,0.154185843591874,-1.6962528621585E-16));
#1367=CARTESIAN_POINT('',(0.295424844986037,0.154310203783912,-1.82196062742295E-15));
#1368=CARTESIAN_POINT('',(0.294430509538222,0.154588931837941,3.65758220221922E-15));
#1369=CARTESIAN_POINT('',(0.29376619941788,0.154646627689868,9.25857141565855E-15));
#1370=CARTESIAN_POINT('',(0.29311245588789,0.154646627682559,0.));
#1371=CARTESIAN_POINT('',(0.29768445588789,0.149566627682559,0.));
#1372=CARTESIAN_POINT('',(0.297684455894091,0.150188930353512,0.));
#1373=CARTESIAN_POINT('',(0.297628857973048,0.150804224044143,-2.27682456221956E-18));
#1374=CARTESIAN_POINT('',(0.297377937429655,0.151704012890249,-2.27682456221956E-18));
#1375=CARTESIAN_POINT('',(0.297265458095858,0.151996694968203,-5.42101086242752E-19));
#1376=CARTESIAN_POINT('',(0.296969690971816,0.152541894905628,-5.42101086242752E-19));
#1377=CARTESIAN_POINT('',(0.296782239565666,0.152798243936805,-5.42101086242752E-19));
#1378=CARTESIAN_POINT('',(0.296346042556821,0.153234799366629,-5.42101086242752E-19));
#1379=CARTESIAN_POINT('',(0.296090958152855,0.153421762029046,-1.3010426069826E-18));
#1380=CARTESIAN_POINT('',(0.295545389303129,0.153718416942121,-1.3010426069826E-18));
#1381=CARTESIAN_POINT('',(0.295256680075198,0.153829761908879,4.55364912443912E-18));
#1382=CARTESIAN_POINT('',(0.29435549350252,0.154082378848105,4.55364912443912E-18));
#1383=CARTESIAN_POINT('',(0.293733425885325,0.154138627688798,0.));
#1384=CARTESIAN_POINT('',(0.29311245588789,0.154138627682559,0.));
#1385=CARTESIAN_POINT('',(0.29768445588789,0.149566627682559,-1.50155885785638E-21));
#1386=CARTESIAN_POINT('',(0.298023122554557,0.149566627682559,4.18141312547027E-15));
#1387=CARTESIAN_POINT('',(0.298192455887891,0.149566627682559,0.000169333333337515));
#1388=CARTESIAN_POINT('',(0.29819245588789,0.149566627682559,0.000508));
#1389=CARTESIAN_POINT('',(0.29311245588789,-0.0104533723174406,0.000508));
#1390=CARTESIAN_POINT('',(0.293767689105042,-0.0104533723174406,0.000508000000000877));
#1391=CARTESIAN_POINT('',(0.294424661856253,-0.0103963511588191,0.000507999999999492));
#1392=CARTESIAN_POINT('',(0.295417222353283,-0.0101195597701694,0.000508000000000251));
#1393=CARTESIAN_POINT('',(0.29574595259433,-0.00999395309685614,0.000508000000000134));
#1394=CARTESIAN_POINT('',(0.296368767780099,-0.00965608025966787,0.000507999999999865));
#1395=CARTESIAN_POINT('',(0.296667181090081,-0.00943843795811432,0.00050799999999973));
#1396=CARTESIAN_POINT('',(0.297175644013748,-0.00893039249194461,0.000508000000000265));
#1397=CARTESIAN_POINT('',(0.297392743047622,-0.00863341838416612,0.000508000000000167));
#1398=CARTESIAN_POINT('',(0.297731671790905,-0.00801010501934316,0.00050799999999983));
#1399=CARTESIAN_POINT('',(0.29785603199338,-0.00768576141672688,0.000507999999999746));
#1400=CARTESIAN_POINT('',(0.298134760034999,-0.00669142596549332,0.000508000000000507));
#1401=CARTESIAN_POINT('',(0.298192455887891,-0.00602711584916714,0.000508000000001117));
#1402=CARTESIAN_POINT('',(0.298192455887891,-0.00537337231744065,0.000508000000000006));
#1403=CARTESIAN_POINT('',(0.29311245588789,-0.0104533723174406,-6.50521303491303E-19));
#1404=CARTESIAN_POINT('',(0.293767689102509,-0.0104533723246355,1.11290974803988E-15));
#1405=CARTESIAN_POINT('',(0.294424661859585,-0.0103963511707673,-6.0842421787549E-16));
#1406=CARTESIAN_POINT('',(0.295417222351617,-0.0101195597641953,3.03073696656635E-16));
#1407=CARTESIAN_POINT('',(0.295745952597429,-0.00999395310256778,1.71916232418365E-16));
#1408=CARTESIAN_POINT('',(0.296368767777,-0.00965608025395623,-1.64326817210967E-16));
#1409=CARTESIAN_POINT('',(0.296667181089832,-0.00943843795786606,-1.96707121910876E-15));
#1410=CARTESIAN_POINT('',(0.297175644013998,-0.00893039249219288,1.94712189913502E-15));
#1411=CARTESIAN_POINT('',(0.297392743041318,-0.00863341838073837,-1.22055358998901E-16));
#1412=CARTESIAN_POINT('',(0.297731671797209,-0.00801010502277092,1.13598582053514E-16));
#1413=CARTESIAN_POINT('',(0.297856031989252,-0.00768576141556921,5.06606135297982E-16));
#1414=CARTESIAN_POINT('',(0.298134760043255,-0.00669142596780865,-1.01548909515818E-15));
#1415=CARTESIAN_POINT('',(0.298192455895148,-0.00602711584740312,1.4311086524659E-14));
#1416=CARTESIAN_POINT('',(0.298192455887891,-0.00537337231744065,2.38524477946811E-18));
#1417=CARTESIAN_POINT('',(0.29311245588789,-0.00994537231744065,-6.50521303491303E-19));
#1418=CARTESIAN_POINT('',(0.293734758558811,-0.00994537232356964,-6.50521303491303E-19));
#1419=CARTESIAN_POINT('',(0.294350052249517,-0.00988977440259733,-7.58941520739853E-19));
#1420=CARTESIAN_POINT('',(0.295249841095558,-0.00963885385920568,-7.58941520739853E-19));
#1421=CARTESIAN_POINT('',(0.295542523173516,-0.00952637452540942,3.79470760369927E-18));
#1422=CARTESIAN_POINT('',(0.296087723110976,-0.00923060740136429,3.79470760369927E-18));
#1423=CARTESIAN_POINT('',(0.296344072142149,-0.00904315599520934,-9.97465998686664E-18));
#1424=CARTESIAN_POINT('',(0.296780627571948,-0.00860695898637767,-9.97465998686664E-18));
#1425=CARTESIAN_POINT('',(0.296967590234364,-0.00835187458241255,-4.22838847269346E-18));
#1426=CARTESIAN_POINT('',(0.297264245147465,-0.00780630573267203,-4.22838847269346E-18));
#1427=CARTESIAN_POINT('',(0.297375590114215,-0.00751759650472875,-7.58941520739853E-19));
#1428=CARTESIAN_POINT('',(0.297628207053427,-0.00661640993210738,-7.58941520739853E-19));
#1429=CARTESIAN_POINT('',(0.297684455894078,-0.00599434231484739,2.38524477946811E-18));
#1430=CARTESIAN_POINT('',(0.29768445588789,-0.00537337231744065,2.38524477946811E-18));
#1431=CARTESIAN_POINT('',(0.298192455887891,-0.00537337231744064,0.000508000000000006));
#1432=CARTESIAN_POINT('',(0.298192455887891,-0.00537337231744062,0.000169333333337533));
#1433=CARTESIAN_POINT('',(0.298023122554557,-0.00537337231744062,4.19720337868984E-15));
#1434=CARTESIAN_POINT('',(0.297684455887891,-0.00537337231744064,-1.50155846770298E-21));
#1435=CARTESIAN_POINT('',(0.298192455887891,-0.00537337231744064,0.000508000000000006));
#1436=CARTESIAN_POINT('',(0.298192455887891,0.149566627682559,0.000508000000000006));
#1437=CARTESIAN_POINT('',(0.298192455887891,-0.00537337231744063,0.000169333333337481));
#1438=CARTESIAN_POINT('',(0.298192455887891,0.149566627682559,0.000169333333337481));
#1439=CARTESIAN_POINT('',(0.298023122554557,-0.00537337231744063,4.14501728593078E-15));
#1440=CARTESIAN_POINT('',(0.298023122554557,0.149566627682559,4.14501728593078E-15));
#1441=CARTESIAN_POINT('',(0.29768445588789,-0.00537337231744064,-1.42455675355624E-21));
#1442=CARTESIAN_POINT('',(0.29768445588789,0.149566627682559,-1.42455675355624E-21));
#1443=MECHANICAL_DESIGN_GEOMETRIC_PRESENTATION_REPRESENTATION('',(#732),#1444);
#1444=(
GEOMETRIC_REPRESENTATION_CONTEXT(3)
GLOBAL_UNCERTAINTY_ASSIGNED_CONTEXT((#1445))
GLOBAL_UNIT_ASSIGNED_CONTEXT((#1448,#1447,#1446))
REPRESENTATION_CONTEXT('Part 1','TOP_LEVEL_ASSEMBLY_PART')
);
#1445=UNCERTAINTY_MEASURE_WITH_UNIT(LENGTH_MEASURE(2.0000000000111E-05),#1448,'DISTANCE_ACCURACY_VALUE','Maximum Tolerance applied to model');
#1446=(
NAMED_UNIT(*)
SI_UNIT($,.STERADIAN.)
SOLID_ANGLE_UNIT()
);
#1447=(
NAMED_UNIT(*)
PLANE_ANGLE_UNIT()
SI_UNIT($,.RADIAN.)
);
#1448=(
LENGTH_UNIT()
NAMED_UNIT(*)
SI_UNIT($,.METRE.)
);
#1449=PRODUCT_DEFINITION_SHAPE('','',#1450);
#1450=PRODUCT_DEFINITION('','',#1452,#1451);
#1451=PRODUCT_DEFINITION_CONTEXT('',#1458,'design');
#1452=PRODUCT_DEFINITION_FORMATION_WITH_SPECIFIED_SOURCE('','',#1454,.NOT_KNOWN.);
#1453=PRODUCT_RELATED_PRODUCT_CATEGORY('','',(#1454));
#1454=PRODUCT('Part 1','Part 1','Part 1',(#1456));
#1455=PRODUCT_CATEGORY('','');
#1456=PRODUCT_CONTEXT('',#1458,'mechanical');
#1457=APPLICATION_PROTOCOL_DEFINITION('international standard','ap242_managed_model_based_3d_engineering',2020,#1458);
#1458=APPLICATION_CONTEXT('managed model based 3d engineering');
ENDSEC;
END-ISO-10303-21;
